<svg xmlns="http://www.w3.org/2000/svg" xmlns:xlink="http://www.w3.org/1999/xlink" width="500" zoomAndPan="magnify" viewBox="0 0 375 374.999991" height="500" preserveAspectRatio="xMidYMid meet" version="1.0"><defs><g/><clipPath id="9770f3dc1e"><path d="M 36 38 L 338.828125 38 L 338.828125 334 L 36 334 Z M 36 38 " clip-rule="nonzero"/></clipPath><clipPath id="8767160591"><rect x="0" width="97" y="0" height="115"/></clipPath><clipPath id="7221ffffc9"><rect x="0" width="93" y="0" height="116"/></clipPath><clipPath id="ead5239be7"><path d="M 89.582031 213.285156 L 99.972656 213.285156 L 99.972656 223.675781 L 89.582031 223.675781 Z M 89.582031 213.285156 " clip-rule="nonzero"/></clipPath><clipPath id="7a767d735c"><path d="M 94.777344 213.285156 C 91.90625 213.285156 89.582031 215.609375 89.582031 218.480469 C 89.582031 221.351562 91.90625 223.675781 94.777344 223.675781 C 97.644531 223.675781 99.972656 221.351562 99.972656 218.480469 C 99.972656 215.609375 97.644531 213.285156 94.777344 213.285156 Z M 94.777344 213.285156 " clip-rule="nonzero"/></clipPath><clipPath id="10428cd979"><path d="M 0.582031 0.285156 L 10.972656 0.285156 L 10.972656 10.675781 L 0.582031 10.675781 Z M 0.582031 0.285156 " clip-rule="nonzero"/></clipPath><clipPath id="d794e2bca6"><path d="M 5.777344 0.285156 C 2.90625 0.285156 0.582031 2.609375 0.582031 5.480469 C 0.582031 8.351562 2.90625 10.675781 5.777344 10.675781 C 8.644531 10.675781 10.972656 8.351562 10.972656 5.480469 C 10.972656 2.609375 8.644531 0.285156 5.777344 0.285156 Z M 5.777344 0.285156 " clip-rule="nonzero"/></clipPath><clipPath id="93701dd020"><rect x="0" width="11" y="0" height="11"/></clipPath><clipPath id="7ce4ed9764"><path d="M 271.6875 213.285156 L 282.078125 213.285156 L 282.078125 223.675781 L 271.6875 223.675781 Z M 271.6875 213.285156 " clip-rule="nonzero"/></clipPath><clipPath id="e53a953ca7"><path d="M 276.882812 213.285156 C 274.011719 213.285156 271.6875 215.609375 271.6875 218.480469 C 271.6875 221.351562 274.011719 223.675781 276.882812 223.675781 C 279.753906 223.675781 282.078125 221.351562 282.078125 218.480469 C 282.078125 215.609375 279.753906 213.285156 276.882812 213.285156 Z M 276.882812 213.285156 " clip-rule="nonzero"/></clipPath><clipPath id="990b9b4871"><path d="M 0.6875 0.285156 L 11.078125 0.285156 L 11.078125 10.675781 L 0.6875 10.675781 Z M 0.6875 0.285156 " clip-rule="nonzero"/></clipPath><clipPath id="194b6aa303"><path d="M 5.882812 0.285156 C 3.011719 0.285156 0.6875 2.609375 0.6875 5.480469 C 0.6875 8.351562 3.011719 10.675781 5.882812 10.675781 C 8.753906 10.675781 11.078125 8.351562 11.078125 5.480469 C 11.078125 2.609375 8.753906 0.285156 5.882812 0.285156 Z M 5.882812 0.285156 " clip-rule="nonzero"/></clipPath><clipPath id="a4b76b8a99"><rect x="0" width="12" y="0" height="11"/></clipPath></defs><rect x="-37.5" width="450" fill="#ffffff" y="-37.499999" height="449.999989" fill-opacity="1"/><rect x="-37.5" width="450" fill="#000000" y="-37.499999" height="449.999989" fill-opacity="1"/><g clip-path="url(#9770f3dc1e)"><path fill="#ff66c4" d="M 333.53125 189.988281 C 332.949219 206.4375 329.617188 222.785156 323.683594 238.109375 C 316.71875 256.167969 306.199219 272.808594 292.945312 286.855469 C 279.707031 300.914062 263.726562 312.367188 246.148438 320.332031 C 228.585938 328.320312 209.457031 332.765625 190.214844 333.449219 C 170.96875 334.160156 151.601562 331.101562 133.5625 324.433594 C 115.511719 317.792969 98.8125 307.582031 84.660156 294.609375 C 70.492188 281.652344 58.878906 265.933594 50.722656 248.578125 C 42.535156 231.238281 37.855469 212.277344 36.898438 193.175781 C 35.898438 174.058594 38.648438 154.761719 45.015625 136.738281 C 51.355469 118.710938 61.261719 101.964844 73.953125 87.714844 C 86.632812 73.453125 102.09375 61.6875 119.21875 53.320312 C 136.332031 44.941406 155.089844 40.011719 174.070312 38.765625 C 193.050781 37.476562 212.277344 39.933594 230.285156 45.996094 C 248.300781 52.039062 265.085938 61.652344 279.433594 74.066406 C 293.789062 86.460938 305.703125 101.664062 314.265625 118.558594 C 322.847656 135.445312 328.027344 154.023438 329.554688 172.871094 C 327.878906 154.027344 322.554688 135.53125 313.867188 118.757812 C 305.199219 101.980469 293.21875 86.949219 278.851562 74.742188 C 264.496094 62.515625 247.761719 53.113281 229.867188 47.261719 C 211.972656 41.390625 192.945312 39.125 174.199219 40.542969 C 155.449219 41.917969 136.988281 46.933594 120.203125 55.320312 C 103.402344 63.691406 88.292969 75.382812 75.960938 89.484375 C 63.609375 103.570312 54.023438 120.070312 47.957031 137.761719 C 41.863281 155.453125 39.332031 174.324219 40.453125 192.976562 C 41.539062 211.625 46.246094 230.050781 54.339844 246.859375 C 62.414062 263.671875 73.816406 278.855469 87.660156 291.316406 C 101.488281 303.792969 117.742188 313.546875 135.242188 319.828125 C 152.730469 326.140625 171.445312 328.9375 189.992188 328.101562 C 208.550781 327.304688 226.925781 322.871094 243.738281 315.066406 C 260.5625 307.28125 275.808594 296.164062 288.390625 282.59375 C 300.988281 269.03125 310.917969 253.023438 317.4375 235.734375 C 322.96875 221.113281 326.015625 205.585938 326.46875 189.988281 C 323.445312 188.679688 321.265625 185.746094 321.085938 182.242188 C 320.839844 177.3125 324.625 173.117188 329.554688 172.871094 C 334.476562 172.621094 338.667969 176.414062 338.914062 181.332031 C 339.109375 185.167969 336.855469 188.558594 333.53125 189.988281 Z M 333.53125 189.988281 " fill-opacity="1" fill-rule="nonzero"/></g><path fill="#cb6ce6" d="M 300.542969 183.929688 C 300.636719 198.976562 297.78125 214.027344 292.148438 227.949219 C 286.535156 241.886719 278.175781 254.679688 267.726562 265.429688 C 257.289062 276.183594 244.753906 284.890625 231.039062 290.871094 C 217.328125 296.871094 202.449219 300.109375 187.527344 300.460938 C 172.605469 300.839844 157.609375 298.292969 143.6875 292.964844 C 129.757812 287.644531 116.90625 279.582031 106.058594 269.40625 C 95.191406 259.242188 86.328125 246.964844 80.140625 233.46875 C 73.933594 219.976562 70.4375 205.277344 69.800781 190.472656 C 70.585938 205.269531 74.226562 219.90625 80.542969 233.28125 C 86.847656 246.664062 95.785156 258.78125 106.660156 268.757812 C 117.535156 278.746094 130.339844 286.601562 144.15625 291.710938 C 157.96875 296.847656 172.785156 299.199219 187.476562 298.683594 C 202.175781 298.195312 216.757812 294.855469 230.140625 288.839844 C 243.53125 282.839844 255.710938 274.191406 265.804688 263.578125 C 275.910156 252.972656 283.929688 240.410156 289.261719 226.796875 C 294.609375 213.191406 297.21875 198.558594 296.988281 183.96875 C 296.78125 169.375 293.75 154.84375 288.03125 141.445312 C 282.320312 128.046875 273.964844 115.808594 263.613281 105.601562 C 253.273438 95.382812 240.957031 87.195312 227.550781 81.664062 C 214.148438 76.113281 199.679688 73.207031 185.195312 73.207031 C 170.710938 73.179688 156.25 75.921875 142.851562 81.339844 C 129.457031 86.742188 117.179688 94.835938 106.863281 104.910156 C 96.546875 114.976562 88.199219 127.039062 82.449219 140.234375 C 77.832031 150.804688 74.894531 162.101562 73.765625 173.570312 C 76.671875 175.03125 78.671875 178.03125 78.6875 181.507812 C 78.710938 186.433594 74.730469 190.449219 69.800781 190.472656 C 64.875 190.492188 60.859375 186.515625 60.835938 181.585938 C 60.824219 177.699219 63.292969 174.375 66.757812 173.144531 C 68.054688 160.863281 71.300781 148.792969 76.351562 137.539062 C 82.585938 123.617188 91.546875 110.953125 102.539062 100.433594 C 113.53125 89.914062 126.554688 81.511719 140.714844 75.976562 C 154.859375 70.410156 170.085938 67.691406 185.238281 67.878906 C 200.40625 68.027344 215.515625 71.222656 229.445312 77.152344 C 243.378906 83.074219 256.113281 91.726562 266.757812 102.457031 C 277.40625 113.167969 285.945312 125.960938 291.714844 139.898438 C 297.507812 153.828125 300.480469 168.886719 300.542969 183.929688 Z M 300.542969 183.929688 " fill-opacity="1" fill-rule="nonzero"/><g transform="matrix(1, 0, 0, 1, 107, 87)"><g clip-path="url(#8767160591)"><g fill="#ff66c4" fill-opacity="1"><g transform="translate(0.611902, 98.330143)"><g><path d="M 32.6875 -34.75 L 32.6875 -31.1875 L 77.40625 -31.1875 L 77.40625 -34.75 C 77.40625 -36.8125 77.234375 -38.722656 76.890625 -40.484375 C 76.546875 -42.242188 76.109375 -43.890625 75.578125 -45.421875 L 67.671875 -64.109375 C 66.828125 -66.097656 65.945312 -67.757812 65.03125 -69.09375 C 64.113281 -70.4375 62.582031 -71.109375 60.4375 -71.109375 L 49.203125 -71.109375 C 46.910156 -71.109375 45.300781 -70.4375 44.375 -69.09375 C 43.457031 -67.757812 42.617188 -66.132812 41.859375 -64.21875 L 34.515625 -45.421875 C 33.984375 -43.890625 33.546875 -42.242188 33.203125 -40.484375 C 32.859375 -38.722656 32.6875 -36.8125 32.6875 -34.75 Z M 51.03125 -58.484375 C 51.34375 -59.171875 51.671875 -59.664062 52.015625 -59.96875 C 52.359375 -60.28125 52.757812 -60.4375 53.21875 -60.4375 L 56.078125 -60.4375 C 56.535156 -60.4375 56.9375 -60.28125 57.28125 -59.96875 C 57.625 -59.664062 57.953125 -59.171875 58.265625 -58.484375 L 63.65625 -41.0625 L 45.640625 -41.0625 Z M 77.40625 -10.328125 L 77.40625 -30.046875 L 32.6875 -30.046875 L 32.6875 -10.328125 L 31.53125 -10.328125 L 31.53125 -34.75 C 31.53125 -36.894531 31.703125 -38.863281 32.046875 -40.65625 C 32.398438 -42.457031 32.878906 -44.195312 33.484375 -45.875 L 40.828125 -64.6875 C 41.671875 -66.820312 42.625 -68.613281 43.6875 -70.0625 C 44.757812 -71.519531 46.597656 -72.25 49.203125 -72.25 L 60.4375 -72.25 C 62.957031 -72.25 64.734375 -71.519531 65.765625 -70.0625 C 66.804688 -68.613281 67.785156 -66.78125 68.703125 -64.5625 L 76.609375 -45.875 C 77.222656 -44.195312 77.703125 -42.457031 78.046875 -40.65625 C 78.390625 -38.863281 78.5625 -36.894531 78.5625 -34.75 L 78.5625 -10.328125 Z M 44.5 -4.125 L 44.5 -20.1875 L 64.796875 -20.1875 L 64.796875 -4.125 C 64.796875 -2.675781 65.160156 -1.625 65.890625 -0.96875 C 66.617188 -0.320312 67.742188 0 69.265625 0 L 86.59375 0 C 88.039062 0 89.085938 -0.320312 89.734375 -0.96875 C 90.390625 -1.625 90.71875 -2.675781 90.71875 -4.125 L 90.71875 -34.40625 C 90.71875 -36.695312 90.351562 -39.332031 89.625 -42.3125 C 88.894531 -45.300781 87.769531 -48.78125 86.25 -52.75 L 76.265625 -78.796875 C 75.804688 -80.085938 75.097656 -81.039062 74.140625 -81.65625 C 73.191406 -82.269531 71.988281 -82.578125 70.53125 -82.578125 L 39.6875 -82.578125 C 38.15625 -82.578125 36.910156 -82.269531 35.953125 -81.65625 C 34.992188 -81.039062 34.285156 -80.085938 33.828125 -78.796875 L 23.859375 -52.75 C 22.328125 -48.78125 21.195312 -45.300781 20.46875 -42.3125 C 19.738281 -39.332031 19.375 -36.695312 19.375 -34.40625 L 19.375 -4.125 C 19.375 -2.675781 19.695312 -1.625 20.34375 -0.96875 C 21 -0.320312 22.054688 0 23.515625 0 L 40.375 0 C 41.820312 0 42.867188 -0.320312 43.515625 -0.96875 C 44.171875 -1.625 44.5 -2.675781 44.5 -4.125 Z M 29.125 12.5 C 28.820312 12.800781 28.34375 13.066406 27.6875 13.296875 C 27.039062 13.523438 26.335938 13.640625 25.578125 13.640625 L 8.71875 13.640625 C 6.882812 13.640625 5.546875 13.21875 4.703125 12.375 C 3.859375 11.539062 3.4375 10.207031 3.4375 8.375 L 3.4375 -21.90625 C 3.4375 -24.269531 3.800781 -26.960938 4.53125 -29.984375 C 5.257812 -33.003906 6.425781 -36.582031 8.03125 -40.71875 L 17.890625 -66.640625 C 18.117188 -67.328125 18.40625 -67.914062 18.75 -68.40625 C 19.09375 -68.90625 19.457031 -69.347656 19.84375 -69.734375 L 19.953125 -69.84375 L 34.640625 -82.109375 C 35.242188 -82.648438 35.96875 -83.050781 36.8125 -83.3125 C 37.65625 -83.582031 38.613281 -83.71875 39.6875 -83.71875 L 70.53125 -83.71875 C 72.289062 -83.71875 73.722656 -83.351562 74.828125 -82.625 C 75.941406 -81.90625 76.765625 -80.78125 77.296875 -79.25 L 87.28125 -53.21875 C 88.882812 -49.082031 90.046875 -45.503906 90.765625 -42.484375 C 91.492188 -39.472656 91.859375 -36.78125 91.859375 -34.40625 L 91.859375 -4.125 C 91.859375 -3.132812 91.722656 -2.296875 91.453125 -1.609375 C 91.191406 -0.921875 90.796875 -0.347656 90.265625 0.109375 L 75.34375 12.5 C 75.039062 12.800781 74.5625 13.066406 73.90625 13.296875 C 73.257812 13.523438 72.554688 13.640625 71.796875 13.640625 L 54.46875 13.640625 C 52.5625 13.640625 51.148438 13.203125 50.234375 12.328125 C 49.316406 11.453125 48.859375 10.132812 48.859375 8.375 L 48.859375 -6.53125 L 45.640625 -6.53125 L 45.640625 -4.125 C 45.640625 -3.132812 45.503906 -2.296875 45.234375 -1.609375 C 44.972656 -0.921875 44.578125 -0.347656 44.046875 0.109375 Z M 29.125 12.5 "/></g></g></g></g></g><g transform="matrix(1, 0, 0, 1, 163, 135)"><g clip-path="url(#7221ffffc9)"><g fill="#ff66c4" fill-opacity="1"><g transform="translate(1.417571, 99.180415)"><g><path d="M 36.359375 15.375 C 29.398438 15.375 23.679688 14.585938 19.203125 13.015625 C 14.734375 11.453125 11.21875 9.367188 8.65625 6.765625 C 6.09375 4.160156 4.332031 1.179688 3.375 -2.171875 C 2.425781 -5.535156 1.953125 -9.015625 1.953125 -12.609375 L 1.953125 -27.75 C 1.953125 -28.75 2.082031 -29.609375 2.34375 -30.328125 C 2.613281 -31.054688 2.976562 -31.613281 3.4375 -32 L 18.34375 -44.5 C 18.726562 -44.800781 19.226562 -45.046875 19.84375 -45.234375 C 20.457031 -45.429688 21.179688 -45.53125 22.015625 -45.53125 L 38.65625 -45.53125 C 39.488281 -45.53125 40.226562 -45.429688 40.875 -45.234375 C 41.53125 -45.046875 42.085938 -44.765625 42.546875 -44.390625 L 42.546875 -65.9375 C 42.546875 -66.9375 42.679688 -67.78125 42.953125 -68.46875 C 43.222656 -69.15625 43.625 -69.726562 44.15625 -70.1875 L 58.953125 -82.6875 C 59.328125 -82.988281 59.835938 -83.234375 60.484375 -83.421875 C 61.140625 -83.617188 61.851562 -83.71875 62.625 -83.71875 L 80.625 -83.71875 C 82.457031 -83.71875 83.796875 -83.296875 84.640625 -82.453125 C 85.484375 -81.617188 85.90625 -80.285156 85.90625 -78.453125 L 85.90625 -21.671875 C 85.90625 -18.078125 85.382812 -14.769531 84.34375 -11.75 C 83.3125 -8.726562 81.5 -6.148438 78.90625 -4.015625 L 64.109375 8.484375 C 61.503906 10.628906 57.984375 12.3125 53.546875 13.53125 C 49.117188 14.757812 43.390625 15.375 36.359375 15.375 Z M 84.75 -21.671875 L 84.75 -78.453125 C 84.75 -79.898438 84.421875 -80.945312 83.765625 -81.59375 C 83.117188 -82.25 82.070312 -82.578125 80.625 -82.578125 L 62.625 -82.578125 C 61.164062 -82.578125 60.109375 -82.25 59.453125 -81.59375 C 58.804688 -80.945312 58.484375 -79.898438 58.484375 -78.453125 L 58.484375 -26.265625 C 58.484375 -24.734375 58.046875 -23.453125 57.171875 -22.421875 C 56.296875 -21.390625 54.210938 -20.875 50.921875 -20.875 C 47.398438 -20.875 45.160156 -21.390625 44.203125 -22.421875 C 43.253906 -23.453125 42.78125 -24.734375 42.78125 -26.265625 L 42.78125 -40.25 C 42.78125 -41.707031 42.453125 -42.757812 41.796875 -43.40625 C 41.148438 -44.0625 40.101562 -44.390625 38.65625 -44.390625 L 22.015625 -44.390625 C 20.566406 -44.390625 19.515625 -44.0625 18.859375 -43.40625 C 18.210938 -42.757812 17.890625 -41.707031 17.890625 -40.25 L 17.890625 -21.671875 C 17.890625 -18.160156 18.367188 -14.96875 19.328125 -12.09375 C 20.285156 -9.226562 22.003906 -6.78125 24.484375 -4.75 C 26.972656 -2.726562 30.375 -1.144531 34.6875 0 C 39.007812 1.144531 44.5 1.71875 51.15625 1.71875 C 57.882812 1.71875 63.425781 1.144531 67.78125 0 C 72.132812 -1.144531 75.550781 -2.726562 78.03125 -4.75 C 80.519531 -6.78125 82.257812 -9.226562 83.25 -12.09375 C 84.25 -14.96875 84.75 -18.160156 84.75 -21.671875 Z M 70.984375 -72.25 L 72.140625 -72.25 L 72.140625 -24.421875 C 72.140625 -19.910156 70.703125 -16.203125 67.828125 -13.296875 C 64.960938 -10.398438 59.476562 -8.953125 51.375 -8.953125 C 47.09375 -8.953125 43.554688 -9.332031 40.765625 -10.09375 C 37.972656 -10.851562 35.773438 -11.898438 34.171875 -13.234375 C 32.566406 -14.578125 31.4375 -16.203125 30.78125 -18.109375 C 30.132812 -20.023438 29.8125 -22.128906 29.8125 -24.421875 L 29.8125 -33.484375 L 30.96875 -33.484375 L 30.96875 -24.421875 C 30.96875 -20.066406 32.398438 -16.585938 35.265625 -13.984375 C 38.128906 -11.390625 43.5 -10.09375 51.375 -10.09375 C 58.945312 -10.09375 64.109375 -11.410156 66.859375 -14.046875 C 69.609375 -16.679688 70.984375 -20.140625 70.984375 -24.421875 Z M 70.984375 -72.25 "/></g></g></g></g></g><g clip-path="url(#ead5239be7)"><g clip-path="url(#7a767d735c)"><g transform="matrix(1, 0, 0, 1, 89, 213)"><g clip-path="url(#93701dd020)"><g clip-path="url(#10428cd979)"><g clip-path="url(#d794e2bca6)"><path fill="#145da0" d="M 0.582031 0.285156 L 10.972656 0.285156 L 10.972656 10.675781 L 0.582031 10.675781 Z M 0.582031 0.285156 " fill-opacity="1" fill-rule="nonzero"/></g></g></g></g></g></g><g fill="#e2a9f1" fill-opacity="1"><g transform="translate(92.235481, 218.243265)"><g><path d="M 13.203125 5 C 13.117188 4.800781 13.085938 4.539062 13.109375 4.21875 C 13.128906 3.894531 13.148438 3.550781 13.171875 3.1875 C 13.210938 2.84375 13.238281 2.5 13.25 2.15625 C 13.269531 1.820312 13.238281 1.5625 13.15625 1.375 C 13.09375 1.195312 13.03125 1.0625 12.96875 0.96875 C 12.90625 0.875 12.800781 0.851562 12.65625 0.90625 C 12.53125 0.957031 12.472656 1.15625 12.484375 1.5 C 12.484375 1.84375 12.484375 2.273438 12.484375 2.796875 C 12.492188 3.328125 12.46875 3.898438 12.40625 4.515625 C 12.363281 5.160156 12.222656 5.789062 11.984375 6.40625 C 11.742188 7.019531 11.398438 7.585938 10.953125 8.109375 C 10.453125 8.648438 9.804688 9.082031 9.015625 9.40625 C 8.191406 9.738281 7.410156 9.851562 6.671875 9.75 C 5.941406 9.644531 5.28125 9.410156 4.6875 9.046875 C 4.082031 8.660156 3.554688 8.191406 3.109375 7.640625 C 2.671875 7.097656 2.335938 6.535156 2.109375 5.953125 C 1.828125 5.285156 1.644531 4.65625 1.5625 4.0625 C 1.476562 3.476562 1.457031 2.941406 1.5 2.453125 C 1.53125 1.953125 1.617188 1.492188 1.765625 1.078125 C 1.910156 0.671875 2.082031 0.316406 2.28125 0.015625 C 2.476562 -0.285156 2.691406 -0.53125 2.921875 -0.71875 C 3.148438 -0.914062 3.363281 -1.054688 3.5625 -1.140625 C 3.863281 -1.253906 4.164062 -1.320312 4.46875 -1.34375 C 4.78125 -1.363281 5.070312 -1.328125 5.34375 -1.234375 C 5.601562 -1.117188 5.84375 -0.953125 6.0625 -0.734375 C 6.28125 -0.523438 6.457031 -0.253906 6.59375 0.078125 C 6.695312 0.328125 6.753906 0.5625 6.765625 0.78125 C 6.773438 1.007812 6.773438 1.238281 6.765625 1.46875 C 6.742188 1.570312 6.722656 1.675781 6.703125 1.78125 C 6.691406 1.894531 6.671875 2.003906 6.640625 2.109375 C 6.578125 2.328125 6.535156 2.546875 6.515625 2.765625 C 6.492188 2.992188 6.492188 3.222656 6.515625 3.453125 C 6.515625 3.679688 6.570312 3.929688 6.6875 4.203125 C 6.757812 4.390625 6.851562 4.550781 6.96875 4.6875 C 7.0625 4.832031 7.160156 4.882812 7.265625 4.84375 C 7.378906 4.800781 7.445312 4.671875 7.46875 4.453125 C 7.507812 4.242188 7.539062 3.972656 7.5625 3.640625 C 7.582031 3.316406 7.597656 2.9375 7.609375 2.5 C 7.628906 2.0625 7.675781 1.613281 7.75 1.15625 C 7.820312 0.707031 7.921875 0.25 8.046875 -0.21875 C 8.179688 -0.6875 8.367188 -1.132812 8.609375 -1.5625 C 8.859375 -2 9.171875 -2.394531 9.546875 -2.75 C 9.910156 -3.101562 10.378906 -3.394531 10.953125 -3.625 C 12.347656 -4.1875 13.632812 -4.160156 14.8125 -3.546875 C 15.382812 -3.253906 15.914062 -2.804688 16.40625 -2.203125 C 16.90625 -1.609375 17.335938 -0.875 17.703125 0 C 17.953125 0.625 18.085938 1.378906 18.109375 2.265625 C 18.109375 2.679688 18.078125 3.101562 18.015625 3.53125 C 17.953125 3.957031 17.84375 4.359375 17.6875 4.734375 C 17.53125 5.109375 17.320312 5.4375 17.0625 5.71875 C 16.800781 6.007812 16.484375 6.234375 16.109375 6.390625 C 15.429688 6.660156 14.84375 6.660156 14.34375 6.390625 C 13.851562 6.128906 13.472656 5.664062 13.203125 5 Z M 15.078125 4.21875 L 15.140625 4.34375 C 15.191406 4.394531 15.253906 4.425781 15.328125 4.4375 C 15.398438 4.457031 15.460938 4.457031 15.515625 4.4375 C 15.640625 4.382812 15.726562 4.289062 15.78125 4.15625 C 15.851562 3.882812 15.914062 3.617188 15.96875 3.359375 C 16.03125 3.097656 16.070312 2.832031 16.09375 2.5625 C 16.101562 2.257812 16.078125 1.945312 16.015625 1.625 C 15.960938 1.300781 15.859375 0.941406 15.703125 0.546875 C 15.546875 0.148438 15.332031 -0.21875 15.0625 -0.5625 C 14.789062 -0.914062 14.492188 -1.210938 14.171875 -1.453125 C 13.835938 -1.671875 13.472656 -1.816406 13.078125 -1.890625 C 12.691406 -1.960938 12.300781 -1.914062 11.90625 -1.75 C 11.457031 -1.570312 11.097656 -1.328125 10.828125 -1.015625 C 10.554688 -0.710938 10.335938 -0.367188 10.171875 0.015625 C 10.015625 0.398438 9.90625 0.8125 9.84375 1.25 C 9.78125 1.695312 9.726562 2.148438 9.6875 2.609375 C 9.644531 3.054688 9.597656 3.492188 9.546875 3.921875 C 9.503906 4.359375 9.429688 4.765625 9.328125 5.140625 C 9.203125 5.515625 9.03125 5.84375 8.8125 6.125 C 8.601562 6.414062 8.3125 6.640625 7.9375 6.796875 C 7.570312 6.941406 7.222656 6.988281 6.890625 6.9375 C 6.566406 6.894531 6.269531 6.785156 6 6.609375 C 5.726562 6.410156 5.476562 6.160156 5.25 5.859375 C 5.03125 5.566406 4.847656 5.238281 4.703125 4.875 C 4.554688 4.507812 4.460938 4.148438 4.421875 3.796875 C 4.390625 3.453125 4.390625 3.125 4.421875 2.8125 C 4.429688 2.5 4.46875 2.203125 4.53125 1.921875 C 4.601562 1.648438 4.675781 1.40625 4.75 1.1875 C 4.769531 1.113281 4.765625 1.035156 4.734375 0.953125 C 4.703125 0.867188 4.640625 0.8125 4.546875 0.78125 C 4.453125 0.75 4.363281 0.753906 4.28125 0.796875 C 4.164062 0.835938 4.070312 0.945312 4 1.125 C 3.925781 1.300781 3.867188 1.519531 3.828125 1.78125 C 3.773438 2.03125 3.742188 2.3125 3.734375 2.625 C 3.722656 2.9375 3.726562 3.25 3.75 3.5625 C 3.769531 3.863281 3.800781 4.148438 3.84375 4.421875 C 3.894531 4.703125 3.960938 4.941406 4.046875 5.140625 C 4.265625 5.671875 4.523438 6.125 4.828125 6.5 C 5.140625 6.882812 5.484375 7.175781 5.859375 7.375 C 6.628906 7.78125 7.453125 7.804688 8.328125 7.453125 C 8.773438 7.265625 9.125 7.019531 9.375 6.71875 C 9.632812 6.425781 9.832031 6.085938 9.96875 5.703125 C 10.113281 5.316406 10.210938 4.898438 10.265625 4.453125 C 10.316406 4.015625 10.359375 3.578125 10.390625 3.140625 C 10.410156 2.703125 10.441406 2.257812 10.484375 1.8125 C 10.523438 1.375 10.601562 0.96875 10.71875 0.59375 C 10.851562 0.226562 11.03125 -0.0976562 11.25 -0.390625 C 11.46875 -0.679688 11.78125 -0.90625 12.1875 -1.0625 C 12.507812 -1.195312 12.8125 -1.226562 13.09375 -1.15625 C 13.375 -1.082031 13.640625 -0.941406 13.890625 -0.734375 C 14.128906 -0.546875 14.34375 -0.304688 14.53125 -0.015625 C 14.71875 0.265625 14.867188 0.550781 14.984375 0.84375 C 15.203125 1.382812 15.304688 1.878906 15.296875 2.328125 C 15.285156 2.554688 15.257812 2.789062 15.21875 3.03125 C 15.1875 3.28125 15.144531 3.566406 15.09375 3.890625 C 15.082031 3.890625 15.078125 3.90625 15.078125 3.9375 C 15.078125 3.96875 15.070312 4.003906 15.0625 4.046875 C 15.050781 4.097656 15.054688 4.15625 15.078125 4.21875 Z M 15.078125 4.21875 "/></g></g></g><g fill="#e2a9f1" fill-opacity="1"><g transform="translate(97.472485, 231.122878)"><g><path d="M 5.609375 -2.375 C 6.359375 -2.8125 7.144531 -3.078125 7.96875 -3.171875 C 8.800781 -3.273438 9.609375 -3.21875 10.390625 -3 C 11.160156 -2.800781 11.878906 -2.453125 12.546875 -1.953125 C 13.222656 -1.460938 13.78125 -0.847656 14.21875 -0.109375 C 14.65625 0.640625 14.921875 1.425781 15.015625 2.25 C 15.117188 3.070312 15.070312 3.878906 14.875 4.671875 C 14.664062 5.441406 14.3125 6.160156 13.8125 6.828125 C 13.320312 7.503906 12.703125 8.0625 11.953125 8.5 C 11.210938 8.9375 10.425781 9.203125 9.59375 9.296875 C 8.769531 9.398438 7.96875 9.351562 7.1875 9.15625 C 6.40625 8.9375 5.675781 8.582031 5 8.09375 C 4.332031 7.601562 3.78125 6.984375 3.34375 6.234375 C 2.90625 5.492188 2.632812 4.707031 2.53125 3.875 C 2.4375 3.050781 2.492188 2.253906 2.703125 1.484375 C 2.910156 0.691406 3.257812 -0.0351562 3.75 -0.703125 C 4.25 -1.378906 4.867188 -1.9375 5.609375 -2.375 Z M 6.640625 -0.609375 C 6.140625 -0.316406 5.722656 0.0507812 5.390625 0.5 C 5.054688 0.957031 4.820312 1.453125 4.6875 1.984375 C 4.539062 2.503906 4.5 3.046875 4.5625 3.609375 C 4.632812 4.171875 4.816406 4.703125 5.109375 5.203125 C 5.410156 5.710938 5.785156 6.128906 6.234375 6.453125 C 6.679688 6.785156 7.171875 7.023438 7.703125 7.171875 C 8.234375 7.304688 8.773438 7.335938 9.328125 7.265625 C 9.890625 7.203125 10.421875 7.023438 10.921875 6.734375 C 11.429688 6.441406 11.851562 6.066406 12.1875 5.609375 C 12.519531 5.160156 12.753906 4.671875 12.890625 4.140625 C 13.035156 3.609375 13.070312 3.066406 13 2.515625 C 12.9375 1.960938 12.753906 1.429688 12.453125 0.921875 C 12.160156 0.421875 11.789062 0.00390625 11.34375 -0.328125 C 10.894531 -0.671875 10.40625 -0.910156 9.875 -1.046875 C 9.34375 -1.179688 8.796875 -1.210938 8.234375 -1.140625 C 7.679688 -1.078125 7.148438 -0.898438 6.640625 -0.609375 Z M 7.03125 0.0625 C 7.457031 -0.1875 7.90625 -0.335938 8.375 -0.390625 C 8.84375 -0.453125 9.289062 -0.429688 9.71875 -0.328125 C 10.144531 -0.203125 10.546875 -0.0078125 10.921875 0.25 C 11.296875 0.519531 11.601562 0.863281 11.84375 1.28125 C 12.09375 1.695312 12.242188 2.140625 12.296875 2.609375 C 12.347656 3.078125 12.316406 3.519531 12.203125 3.9375 C 12.097656 4.363281 11.898438 4.757812 11.609375 5.125 C 11.316406 5.5 10.957031 5.8125 10.53125 6.0625 C 10.113281 6.3125 9.675781 6.46875 9.21875 6.53125 C 8.757812 6.59375 8.304688 6.570312 7.859375 6.46875 C 7.421875 6.375 7.015625 6.1875 6.640625 5.90625 C 6.265625 5.625 5.953125 5.273438 5.703125 4.859375 C 5.460938 4.441406 5.316406 4.003906 5.265625 3.546875 C 5.210938 3.097656 5.25 2.648438 5.375 2.203125 C 5.5 1.773438 5.703125 1.375 5.984375 1 C 6.265625 0.625 6.613281 0.3125 7.03125 0.0625 Z M 8.078125 1.859375 C 7.722656 2.066406 7.488281 2.359375 7.375 2.734375 C 7.3125 2.910156 7.285156 3.09375 7.296875 3.28125 C 7.316406 3.476562 7.375 3.660156 7.46875 3.828125 C 7.570312 4.003906 7.703125 4.144531 7.859375 4.25 C 8.023438 4.351562 8.203125 4.425781 8.390625 4.46875 C 8.765625 4.539062 9.128906 4.472656 9.484375 4.265625 C 9.835938 4.054688 10.078125 3.769531 10.203125 3.40625 C 10.265625 3.21875 10.285156 3.03125 10.265625 2.84375 C 10.242188 2.664062 10.179688 2.488281 10.078125 2.3125 C 9.984375 2.144531 9.859375 2.003906 9.703125 1.890625 C 9.546875 1.773438 9.375 1.703125 9.1875 1.671875 C 8.800781 1.585938 8.429688 1.648438 8.078125 1.859375 Z M 8.078125 1.859375 "/></g></g></g><g fill="#e2a9f1" fill-opacity="1"><g transform="translate(105.025797, 243.809421)"><g><path d="M 18.25 -0.328125 C 17.894531 -0.0351562 17.507812 0.132812 17.09375 0.1875 C 16.675781 0.25 16.269531 0.195312 15.875 0.03125 C 15.65625 -0.0507812 15.476562 -0.160156 15.34375 -0.296875 C 15.175781 -0.453125 15.015625 -0.59375 14.859375 -0.71875 C 14.703125 -0.84375 14.535156 -0.921875 14.359375 -0.953125 C 14.160156 -0.984375 13.9375 -0.9375 13.6875 -0.8125 L 14.125 -0.265625 C 14.3125 -0.0234375 14.441406 0.226562 14.515625 0.5 C 14.585938 0.78125 14.613281 1.0625 14.59375 1.34375 C 14.5625 1.625 14.472656 1.890625 14.328125 2.140625 C 14.179688 2.398438 13.988281 2.625 13.75 2.8125 C 13.507812 3 13.25 3.125 12.96875 3.1875 C 12.695312 3.257812 12.421875 3.28125 12.140625 3.25 C 11.859375 3.207031 11.585938 3.117188 11.328125 2.984375 C 11.078125 2.859375 10.859375 2.675781 10.671875 2.4375 L 10.203125 1.84375 L 6.484375 4.734375 C 6.222656 4.941406 5.9375 5.085938 5.625 5.171875 C 5.3125 5.253906 5.003906 5.285156 4.703125 5.265625 C 4.378906 5.203125 4.070312 5.09375 3.78125 4.9375 C 3.5 4.789062 3.253906 4.582031 3.046875 4.3125 C 2.835938 4.050781 2.691406 3.757812 2.609375 3.4375 C 2.535156 3.125 2.519531 2.820312 2.5625 2.53125 C 2.601562 2.195312 2.703125 1.890625 2.859375 1.609375 C 3.015625 1.328125 3.222656 1.082031 3.484375 0.875 L 7.203125 -2.015625 L 7.15625 -2.0625 C 6.957031 -2.3125 6.828125 -2.578125 6.765625 -2.859375 C 6.703125 -3.148438 6.6875 -3.429688 6.71875 -3.703125 C 6.75 -3.972656 6.832031 -4.234375 6.96875 -4.484375 C 7.113281 -4.734375 7.304688 -4.953125 7.546875 -5.140625 C 7.785156 -5.328125 8.046875 -5.457031 8.328125 -5.53125 C 8.609375 -5.601562 8.890625 -5.628906 9.171875 -5.609375 C 9.441406 -5.578125 9.695312 -5.488281 9.9375 -5.34375 C 10.1875 -5.207031 10.410156 -5.015625 10.609375 -4.765625 L 10.65625 -4.71875 C 11.382812 -5.195312 12.117188 -5.535156 12.859375 -5.734375 C 13.597656 -5.929688 14.320312 -5.988281 15.03125 -5.90625 C 15.726562 -5.8125 16.390625 -5.582031 17.015625 -5.21875 C 17.640625 -4.863281 18.195312 -4.378906 18.6875 -3.765625 C 18.894531 -3.484375 19.039062 -3.1875 19.125 -2.875 C 19.207031 -2.570312 19.238281 -2.257812 19.21875 -1.9375 C 19.164062 -1.632812 19.054688 -1.34375 18.890625 -1.0625 C 18.734375 -0.78125 18.519531 -0.535156 18.25 -0.328125 Z M 17.0625 -2.03125 C 17.144531 -2.09375 17.191406 -2.175781 17.203125 -2.28125 C 17.210938 -2.382812 17.1875 -2.476562 17.125 -2.5625 C 16.488281 -3.382812 15.644531 -3.800781 14.59375 -3.8125 C 14.082031 -3.820312 13.535156 -3.710938 12.953125 -3.484375 C 12.367188 -3.265625 11.78125 -2.925781 11.1875 -2.46875 L 11.046875 -2.359375 L 10.859375 -2.21875 C 10.828125 -2.207031 10.796875 -2.1875 10.765625 -2.15625 C 10.742188 -2.132812 10.71875 -2.113281 10.6875 -2.09375 L 10.546875 -1.984375 L 9.390625 -3.453125 C 9.328125 -3.535156 9.242188 -3.582031 9.140625 -3.59375 C 9.046875 -3.613281 8.953125 -3.585938 8.859375 -3.515625 C 8.765625 -3.453125 8.710938 -3.367188 8.703125 -3.265625 C 8.703125 -3.171875 8.734375 -3.082031 8.796875 -3 L 9.953125 -1.53125 L 4.78125 2.515625 C 4.726562 2.546875 4.679688 2.613281 4.640625 2.71875 C 4.609375 2.820312 4.632812 2.925781 4.71875 3.03125 C 4.789062 3.132812 4.878906 3.1875 4.984375 3.1875 C 5.085938 3.1875 5.171875 3.160156 5.234375 3.109375 L 10.40625 -0.9375 L 12.046875 1.171875 C 12.117188 1.253906 12.203125 1.300781 12.296875 1.3125 C 12.390625 1.332031 12.484375 1.3125 12.578125 1.25 C 12.671875 1.175781 12.722656 1.085938 12.734375 0.984375 C 12.742188 0.890625 12.710938 0.800781 12.640625 0.71875 L 11 -1.390625 L 12.03125 -2.203125 C 12.476562 -2.546875 12.925781 -2.773438 13.375 -2.890625 C 13.832031 -3.015625 14.257812 -3.0625 14.65625 -3.03125 C 15.050781 -3 15.410156 -2.898438 15.734375 -2.734375 C 16.066406 -2.566406 16.320312 -2.367188 16.5 -2.140625 C 16.582031 -2.035156 16.675781 -1.972656 16.78125 -1.953125 C 16.882812 -1.941406 16.976562 -1.96875 17.0625 -2.03125 Z M 17.0625 -2.03125 "/></g></g></g><g fill="#e2a9f1" fill-opacity="1"><g transform="translate(112.484556, 253.289289)"><g><path d="M 3.671875 0.59375 L 7.421875 -3.109375 L 7.265625 -3.265625 C 7.023438 -3.515625 6.847656 -3.785156 6.734375 -4.078125 C 6.617188 -4.367188 6.566406 -4.664062 6.578125 -4.96875 C 6.585938 -5.269531 6.648438 -5.566406 6.765625 -5.859375 C 6.878906 -6.148438 7.050781 -6.410156 7.28125 -6.640625 C 7.519531 -6.878906 7.785156 -7.050781 8.078125 -7.15625 C 8.367188 -7.269531 8.664062 -7.332031 8.96875 -7.34375 C 9.269531 -7.34375 9.566406 -7.285156 9.859375 -7.171875 C 10.148438 -7.054688 10.414062 -6.875 10.65625 -6.625 L 10.8125 -6.46875 L 11.96875 -7.609375 C 12.207031 -7.847656 12.476562 -8.03125 12.78125 -8.15625 C 13.082031 -8.28125 13.390625 -8.34375 13.703125 -8.34375 C 13.992188 -8.34375 14.289062 -8.28125 14.59375 -8.15625 C 14.894531 -8.039062 15.171875 -7.859375 15.421875 -7.609375 C 15.648438 -7.367188 15.820312 -7.097656 15.9375 -6.796875 C 16.0625 -6.492188 16.125 -6.1875 16.125 -5.875 C 16.125 -5.570312 16.0625 -5.269531 15.9375 -4.96875 C 15.8125 -4.664062 15.628906 -4.394531 15.390625 -4.15625 L 14.234375 -3.015625 L 14.4375 -2.8125 C 14.90625 -2.332031 15.132812 -1.769531 15.125 -1.125 C 15.113281 -0.820312 15.050781 -0.523438 14.9375 -0.234375 C 14.820312 0.0546875 14.644531 0.320312 14.40625 0.5625 C 14.175781 0.789062 13.914062 0.957031 13.625 1.0625 C 13.332031 1.175781 13.035156 1.238281 12.734375 1.25 C 12.421875 1.25 12.117188 1.191406 11.828125 1.078125 C 11.546875 0.960938 11.285156 0.785156 11.046875 0.546875 L 10.84375 0.34375 L 7.09375 4.046875 C 6.851562 4.285156 6.582031 4.46875 6.28125 4.59375 C 5.976562 4.71875 5.671875 4.773438 5.359375 4.765625 C 5.054688 4.765625 4.753906 4.703125 4.453125 4.578125 C 4.148438 4.453125 3.882812 4.269531 3.65625 4.03125 C 3.40625 3.78125 3.21875 3.503906 3.09375 3.203125 C 2.976562 2.910156 2.925781 2.609375 2.9375 2.296875 C 2.9375 2.003906 3 1.707031 3.125 1.40625 C 3.25 1.101562 3.429688 0.832031 3.671875 0.59375 Z M 8.75 -4.65625 L 10.296875 -3.078125 L 5.125 2.03125 C 5.0625 2.09375 5.023438 2.175781 5.015625 2.28125 C 5.003906 2.382812 5.039062 2.476562 5.125 2.5625 C 5.195312 2.632812 5.285156 2.664062 5.390625 2.65625 C 5.503906 2.65625 5.59375 2.625 5.65625 2.5625 L 10.828125 -2.546875 L 12.453125 -0.90625 C 12.535156 -0.820312 12.625 -0.78125 12.71875 -0.78125 C 12.820312 -0.789062 12.910156 -0.832031 12.984375 -0.90625 C 13.054688 -0.976562 13.09375 -1.0625 13.09375 -1.15625 C 13.101562 -1.257812 13.066406 -1.351562 12.984375 -1.4375 L 11.359375 -3.078125 L 13.9375 -5.625 C 14.007812 -5.695312 14.046875 -5.785156 14.046875 -5.890625 C 14.046875 -5.992188 14.007812 -6.082031 13.9375 -6.15625 C 13.851562 -6.238281 13.757812 -6.273438 13.65625 -6.265625 C 13.5625 -6.265625 13.476562 -6.226562 13.40625 -6.15625 L 10.828125 -3.609375 L 9.28125 -5.1875 C 9.195312 -5.257812 9.101562 -5.296875 9 -5.296875 C 8.90625 -5.296875 8.820312 -5.257812 8.75 -5.1875 C 8.675781 -5.113281 8.632812 -5.023438 8.625 -4.921875 C 8.625 -4.816406 8.664062 -4.726562 8.75 -4.65625 Z M 8.75 -4.65625 "/></g></g></g><g fill="#e2a9f1" fill-opacity="1"><g transform="translate(120.492628, 261.882947)"><g><path d="M 10.25 6.03125 L 11.328125 2.0625 L 7.84375 4.265625 C 7.632812 4.390625 7.414062 4.472656 7.1875 4.515625 C 6.957031 4.566406 6.734375 4.585938 6.515625 4.578125 C 6.273438 4.554688 6.039062 4.503906 5.8125 4.421875 C 5.59375 4.347656 5.398438 4.25 5.234375 4.125 C 4.835938 3.84375 4.539062 3.488281 4.34375 3.0625 C 4.144531 2.644531 4.085938 2.175781 4.171875 1.65625 L 5.71875 -6.75 C 5.78125 -7.175781 5.914062 -7.535156 6.125 -7.828125 C 6.34375 -8.117188 6.585938 -8.34375 6.859375 -8.5 C 7.410156 -8.84375 8.023438 -8.9375 8.703125 -8.78125 C 9.015625 -8.707031 9.332031 -8.554688 9.65625 -8.328125 C 10.03125 -8.054688 10.300781 -7.71875 10.46875 -7.3125 C 10.644531 -6.914062 10.671875 -6.488281 10.546875 -6.03125 L 9.40625 -1.78125 L 13.109375 -4.125 C 13.296875 -4.257812 13.503906 -4.347656 13.734375 -4.390625 C 13.972656 -4.441406 14.210938 -4.460938 14.453125 -4.453125 C 14.910156 -4.398438 15.347656 -4.222656 15.765625 -3.921875 C 16.160156 -3.640625 16.457031 -3.289062 16.65625 -2.875 C 16.738281 -2.675781 16.789062 -2.460938 16.8125 -2.234375 C 16.832031 -2.003906 16.8125 -1.78125 16.75 -1.5625 L 15.546875 2.640625 L 19.296875 0.328125 C 19.691406 0.0664062 20.113281 -0.0390625 20.5625 0 C 21.019531 0.0390625 21.441406 0.195312 21.828125 0.46875 C 22.117188 0.675781 22.347656 0.925781 22.515625 1.21875 C 22.691406 1.507812 22.804688 1.804688 22.859375 2.109375 C 22.921875 2.421875 22.914062 2.734375 22.84375 3.046875 C 22.78125 3.359375 22.65625 3.644531 22.46875 3.90625 C 22.375 4.039062 22.253906 4.175781 22.109375 4.3125 C 21.972656 4.445312 21.816406 4.5625 21.640625 4.65625 L 13.921875 8.65625 C 13.472656 8.875 13.015625 8.96875 12.546875 8.9375 C 12.085938 8.914062 11.664062 8.765625 11.28125 8.484375 C 10.875 8.191406 10.578125 7.828125 10.390625 7.390625 C 10.296875 7.179688 10.226562 6.960938 10.1875 6.734375 C 10.15625 6.503906 10.175781 6.269531 10.25 6.03125 Z M 12.984375 6.828125 L 20.625 2.78125 C 20.6875 2.75 20.742188 2.695312 20.796875 2.625 C 20.835938 2.5625 20.847656 2.488281 20.828125 2.40625 C 20.816406 2.332031 20.757812 2.257812 20.65625 2.1875 C 20.507812 2.082031 20.375 2.066406 20.25 2.140625 L 13.03125 6.015625 L 14.609375 -1.78125 C 14.648438 -1.945312 14.648438 -2.0625 14.609375 -2.125 C 14.566406 -2.1875 14.515625 -2.238281 14.453125 -2.28125 C 14.304688 -2.382812 14.128906 -2.375 13.921875 -2.25 L 7 1.671875 L 8.453125 -6.296875 C 8.460938 -6.367188 8.445312 -6.445312 8.40625 -6.53125 C 8.375 -6.625 8.328125 -6.695312 8.265625 -6.75 C 8.140625 -6.832031 8.035156 -6.859375 7.953125 -6.828125 C 7.878906 -6.804688 7.828125 -6.773438 7.796875 -6.734375 C 7.765625 -6.703125 7.738281 -6.628906 7.71875 -6.515625 L 6.28125 2 C 6.257812 2.175781 6.320312 2.316406 6.46875 2.421875 C 6.53125 2.472656 6.601562 2.503906 6.6875 2.515625 C 6.78125 2.535156 6.867188 2.523438 6.953125 2.484375 L 13.921875 -1.546875 L 12.296875 6.34375 C 12.265625 6.507812 12.332031 6.648438 12.5 6.765625 C 12.550781 6.804688 12.625 6.835938 12.71875 6.859375 C 12.8125 6.878906 12.898438 6.867188 12.984375 6.828125 Z M 12.984375 6.828125 "/></g></g></g><g fill="#e2a9f1" fill-opacity="1"><g transform="translate(138.369835, 274.322074)"><g><path d="M 16.796875 -4.3125 L 12.609375 4.6875 C 12.222656 5.488281 11.625 5.703125 10.8125 5.328125 C 10.457031 5.160156 10.195312 4.914062 10.03125 4.59375 C 9.863281 4.28125 9.769531 3.929688 9.75 3.546875 C 9.226562 3.703125 8.679688 3.757812 8.109375 3.71875 C 7.535156 3.675781 6.941406 3.515625 6.328125 3.234375 C 5.546875 2.859375 4.878906 2.363281 4.328125 1.75 C 3.785156 1.132812 3.375 0.445312 3.09375 -0.3125 C 2.8125 -1.070312 2.679688 -1.867188 2.703125 -2.703125 C 2.734375 -3.535156 2.929688 -4.347656 3.296875 -5.140625 C 3.660156 -5.921875 4.15625 -6.585938 4.78125 -7.140625 C 5.40625 -7.691406 6.097656 -8.101562 6.859375 -8.375 C 7.617188 -8.644531 8.410156 -8.769531 9.234375 -8.75 C 10.066406 -8.738281 10.875 -8.546875 11.65625 -8.171875 C 12.269531 -7.890625 12.773438 -7.539062 13.171875 -7.125 C 13.566406 -6.71875 13.867188 -6.265625 14.078125 -5.765625 C 14.390625 -6.015625 14.71875 -6.175781 15.0625 -6.25 C 15.414062 -6.320312 15.78125 -6.269531 16.15625 -6.09375 C 16.96875 -5.71875 17.179688 -5.125 16.796875 -4.3125 Z M 11.25 2.734375 L 14.5625 -4.359375 C 14.582031 -4.421875 14.578125 -4.472656 14.546875 -4.515625 C 14.515625 -4.554688 14.46875 -4.585938 14.40625 -4.609375 C 14.300781 -4.660156 14.175781 -4.648438 14.03125 -4.578125 C 13.851562 -4.503906 13.675781 -4.273438 13.5 -3.890625 L 12.984375 -2.796875 C 13.023438 -3.171875 13 -3.535156 12.90625 -3.890625 C 12.8125 -4.253906 12.660156 -4.597656 12.453125 -4.921875 C 12.023438 -5.535156 11.4375 -6.019531 10.6875 -6.375 C 10.164062 -6.613281 9.632812 -6.738281 9.09375 -6.75 C 8.550781 -6.757812 8.03125 -6.671875 7.53125 -6.484375 C 7.039062 -6.285156 6.59375 -6 6.1875 -5.625 C 5.789062 -5.257812 5.46875 -4.8125 5.21875 -4.28125 C 4.96875 -3.757812 4.828125 -3.222656 4.796875 -2.671875 C 4.773438 -2.117188 4.847656 -1.585938 5.015625 -1.078125 C 5.191406 -0.578125 5.457031 -0.125 5.8125 0.28125 C 6.164062 0.6875 6.601562 1.007812 7.125 1.25 C 7.863281 1.59375 8.625 1.710938 9.40625 1.609375 C 9.789062 1.554688 10.15625 1.445312 10.5 1.28125 C 10.84375 1.113281 11.144531 0.882812 11.40625 0.59375 L 10.71875 2.078125 C 10.65625 2.210938 10.625 2.328125 10.625 2.421875 C 10.625 2.523438 10.632812 2.625 10.65625 2.71875 C 10.707031 2.875 10.796875 2.984375 10.921875 3.046875 C 11.003906 3.085938 11.0625 3.070312 11.09375 3 C 11.132812 2.9375 11.1875 2.847656 11.25 2.734375 Z M 12.046875 -1.09375 C 11.835938 -0.644531 11.5625 -0.265625 11.21875 0.046875 C 10.875 0.359375 10.492188 0.59375 10.078125 0.75 C 9.660156 0.90625 9.222656 0.976562 8.765625 0.96875 C 8.304688 0.957031 7.851562 0.847656 7.40625 0.640625 C 6.96875 0.441406 6.601562 0.171875 6.3125 -0.171875 C 6.019531 -0.515625 5.804688 -0.894531 5.671875 -1.3125 C 5.546875 -1.71875 5.5 -2.148438 5.53125 -2.609375 C 5.5625 -3.066406 5.679688 -3.519531 5.890625 -3.96875 C 6.097656 -4.414062 6.367188 -4.796875 6.703125 -5.109375 C 7.035156 -5.421875 7.398438 -5.664062 7.796875 -5.84375 C 8.203125 -6.007812 8.628906 -6.085938 9.078125 -6.078125 C 9.523438 -6.078125 9.96875 -5.976562 10.40625 -5.78125 C 10.851562 -5.570312 11.226562 -5.289062 11.53125 -4.9375 C 11.832031 -4.59375 12.054688 -4.207031 12.203125 -3.78125 C 12.347656 -3.351562 12.410156 -2.910156 12.390625 -2.453125 C 12.367188 -1.992188 12.253906 -1.539062 12.046875 -1.09375 Z M 10.28125 -1.875 L 10.296875 -1.921875 C 10.367188 -2.109375 10.40625 -2.296875 10.40625 -2.484375 C 10.414062 -2.671875 10.394531 -2.851562 10.34375 -3.03125 C 10.28125 -3.195312 10.1875 -3.347656 10.0625 -3.484375 C 9.945312 -3.628906 9.800781 -3.742188 9.625 -3.828125 C 9.445312 -3.921875 9.265625 -3.960938 9.078125 -3.953125 C 8.890625 -3.953125 8.707031 -3.914062 8.53125 -3.84375 C 8.175781 -3.6875 7.914062 -3.425781 7.75 -3.0625 C 7.570312 -2.675781 7.535156 -2.300781 7.640625 -1.9375 C 7.691406 -1.75 7.78125 -1.582031 7.90625 -1.4375 C 8.03125 -1.300781 8.179688 -1.1875 8.359375 -1.09375 C 8.535156 -1.007812 8.71875 -0.96875 8.90625 -0.96875 C 9.09375 -0.96875 9.273438 -1.003906 9.453125 -1.078125 C 9.828125 -1.222656 10.101562 -1.488281 10.28125 -1.875 Z M 10.28125 -1.875 "/></g></g></g><g fill="#e2a9f1" fill-opacity="1"><g transform="translate(152.570743, 280.777085)"><g><path d="M 1.875 -1.734375 L 4.453125 -10.125 C 4.722656 -10.988281 5.296875 -11.285156 6.171875 -11.015625 C 6.566406 -10.890625 6.863281 -10.691406 7.0625 -10.421875 C 7.257812 -10.160156 7.394531 -9.816406 7.46875 -9.390625 C 8.03125 -9.597656 8.597656 -9.722656 9.171875 -9.765625 C 9.753906 -9.804688 10.328125 -9.738281 10.890625 -9.5625 C 11.265625 -9.445312 11.632812 -9.285156 12 -9.078125 C 12.363281 -8.867188 12.679688 -8.617188 12.953125 -8.328125 C 13.222656 -8.035156 13.410156 -7.695312 13.515625 -7.3125 C 13.617188 -6.9375 13.601562 -6.519531 13.46875 -6.0625 C 13.375 -5.757812 13.222656 -5.492188 13.015625 -5.265625 C 12.816406 -5.035156 12.585938 -4.847656 12.328125 -4.703125 C 12.066406 -4.554688 11.78125 -4.46875 11.46875 -4.4375 C 11.15625 -4.40625 10.851562 -4.429688 10.5625 -4.515625 C 10.320312 -4.585938 10.09375 -4.6875 9.875 -4.8125 C 9.644531 -4.9375 9.414062 -5.035156 9.1875 -5.109375 C 8.957031 -5.179688 8.757812 -5.203125 8.59375 -5.171875 C 8.4375 -5.140625 8.300781 -5.070312 8.1875 -4.96875 C 8.082031 -4.863281 7.992188 -4.726562 7.921875 -4.5625 C 7.847656 -4.394531 7.78125 -4.195312 7.71875 -3.96875 L 6.578125 -0.296875 C 6.484375 0.0351562 6.328125 0.328125 6.109375 0.578125 C 5.898438 0.828125 5.660156 1.019531 5.390625 1.15625 C 5.097656 1.3125 4.789062 1.40625 4.46875 1.4375 C 4.144531 1.46875 3.820312 1.429688 3.5 1.328125 C 3.175781 1.234375 2.890625 1.082031 2.640625 0.875 C 2.390625 0.664062 2.195312 0.421875 2.0625 0.140625 C 1.90625 -0.128906 1.8125 -0.425781 1.78125 -0.75 C 1.75 -1.070312 1.78125 -1.398438 1.875 -1.734375 Z M 6.1875 -8.6875 L 3.875 -1.140625 C 3.84375 -1.035156 3.847656 -0.9375 3.890625 -0.84375 C 3.941406 -0.757812 4.019531 -0.703125 4.125 -0.671875 C 4.226562 -0.640625 4.320312 -0.644531 4.40625 -0.6875 C 4.5 -0.738281 4.5625 -0.816406 4.59375 -0.921875 L 5.84375 -5.03125 C 6.03125 -5.625 6.296875 -6.078125 6.640625 -6.390625 C 6.992188 -6.703125 7.378906 -6.921875 7.796875 -7.046875 C 8.179688 -7.148438 8.585938 -7.179688 9.015625 -7.140625 C 9.441406 -7.109375 9.8125 -7.039062 10.125 -6.9375 C 10.289062 -6.894531 10.421875 -6.851562 10.515625 -6.8125 C 10.609375 -6.769531 10.6875 -6.726562 10.75 -6.6875 C 10.800781 -6.644531 10.847656 -6.609375 10.890625 -6.578125 C 10.941406 -6.546875 11 -6.519531 11.0625 -6.5 C 11.15625 -6.476562 11.242188 -6.472656 11.328125 -6.484375 C 11.410156 -6.503906 11.472656 -6.570312 11.515625 -6.6875 C 11.546875 -6.789062 11.53125 -6.890625 11.46875 -6.984375 C 11.40625 -7.078125 11.320312 -7.164062 11.21875 -7.25 C 11.09375 -7.320312 10.953125 -7.382812 10.796875 -7.4375 C 10.648438 -7.5 10.492188 -7.550781 10.328125 -7.59375 C 9.835938 -7.75 9.367188 -7.820312 8.921875 -7.8125 C 8.472656 -7.8125 8.070312 -7.765625 7.71875 -7.671875 C 7.351562 -7.566406 7.054688 -7.429688 6.828125 -7.265625 C 6.609375 -7.109375 6.460938 -6.953125 6.390625 -6.796875 L 6.609375 -7.484375 C 6.742188 -7.921875 6.773438 -8.238281 6.703125 -8.4375 C 6.628906 -8.644531 6.535156 -8.765625 6.421875 -8.796875 C 6.296875 -8.835938 6.21875 -8.800781 6.1875 -8.6875 Z M 6.1875 -8.6875 "/></g></g></g><g fill="#e2a9f1" fill-opacity="1"><g transform="translate(164.285113, 284.415722)"><g><path d="M 6.9375 1.390625 C 6.082031 1.253906 5.304688 0.960938 4.609375 0.515625 C 3.910156 0.0664062 3.332031 -0.488281 2.875 -1.15625 C 2.382812 -1.8125 2.035156 -2.539062 1.828125 -3.34375 C 1.628906 -4.15625 1.601562 -4.988281 1.75 -5.84375 C 1.882812 -6.695312 2.175781 -7.472656 2.625 -8.171875 C 3.082031 -8.878906 3.644531 -9.460938 4.3125 -9.921875 C 4.957031 -10.390625 5.679688 -10.726562 6.484375 -10.9375 C 7.296875 -11.144531 8.128906 -11.179688 8.984375 -11.046875 C 9.835938 -10.898438 10.613281 -10.613281 11.3125 -10.1875 C 12.019531 -9.769531 12.617188 -9.253906 13.109375 -8.640625 C 13.578125 -8.046875 13.914062 -7.359375 14.125 -6.578125 C 14.34375 -5.796875 14.378906 -4.984375 14.234375 -4.140625 C 14.179688 -3.816406 14.082031 -3.550781 13.9375 -3.34375 C 13.800781 -3.144531 13.628906 -3 13.421875 -2.90625 C 13.222656 -2.800781 12.992188 -2.738281 12.734375 -2.71875 C 12.472656 -2.707031 12.1875 -2.726562 11.875 -2.78125 L 6.53125 -3.65625 C 6.5625 -3.539062 6.601562 -3.414062 6.65625 -3.28125 C 6.707031 -3.15625 6.78125 -3.046875 6.875 -2.953125 C 6.957031 -2.835938 7.054688 -2.738281 7.171875 -2.65625 C 7.285156 -2.570312 7.425781 -2.515625 7.59375 -2.484375 C 7.757812 -2.460938 7.921875 -2.460938 8.078125 -2.484375 C 8.234375 -2.515625 8.394531 -2.546875 8.5625 -2.578125 C 8.726562 -2.609375 8.894531 -2.628906 9.0625 -2.640625 C 9.238281 -2.660156 9.429688 -2.65625 9.640625 -2.625 C 9.898438 -2.582031 10.160156 -2.503906 10.421875 -2.390625 C 10.691406 -2.273438 10.925781 -2.117188 11.125 -1.921875 C 11.332031 -1.734375 11.484375 -1.503906 11.578125 -1.234375 C 11.679688 -0.972656 11.707031 -0.675781 11.65625 -0.34375 C 11.582031 0.125 11.382812 0.488281 11.0625 0.75 C 10.738281 1.019531 10.351562 1.21875 9.90625 1.34375 C 9.445312 1.46875 8.953125 1.523438 8.421875 1.515625 C 7.898438 1.515625 7.40625 1.472656 6.9375 1.390625 Z M 7.4375 -0.375 C 7.914062 -0.300781 8.3125 -0.269531 8.625 -0.28125 C 8.945312 -0.289062 9.207031 -0.332031 9.40625 -0.40625 C 9.59375 -0.46875 9.734375 -0.539062 9.828125 -0.625 C 9.910156 -0.695312 9.957031 -0.75 9.96875 -0.78125 C 9.976562 -0.851562 9.945312 -0.921875 9.875 -0.984375 C 9.8125 -1.054688 9.734375 -1.097656 9.640625 -1.109375 C 9.578125 -1.117188 9.539062 -1.125 9.53125 -1.125 C 9.40625 -1.101562 9.296875 -1.085938 9.203125 -1.078125 C 9.109375 -1.078125 9.023438 -1.066406 8.953125 -1.046875 C 8.804688 -1.015625 8.660156 -0.988281 8.515625 -0.96875 C 8.378906 -0.957031 8.242188 -0.960938 8.109375 -0.984375 C 7.953125 -0.972656 7.765625 -0.984375 7.546875 -1.015625 C 7.054688 -1.097656 6.601562 -1.273438 6.1875 -1.546875 C 5.78125 -1.816406 5.429688 -2.160156 5.140625 -2.578125 C 4.859375 -2.992188 4.65625 -3.476562 4.53125 -4.03125 C 4.40625 -4.582031 4.394531 -5.179688 4.5 -5.828125 L 11.296875 -4.703125 C 11.609375 -4.648438 11.8125 -4.648438 11.90625 -4.703125 C 11.988281 -4.742188 12.039062 -4.832031 12.0625 -4.96875 C 12.132812 -5.425781 12.109375 -5.878906 11.984375 -6.328125 C 11.867188 -6.773438 11.671875 -7.175781 11.390625 -7.53125 C 11.085938 -7.90625 10.707031 -8.21875 10.25 -8.46875 C 9.789062 -8.726562 9.265625 -8.90625 8.671875 -9 C 8.148438 -9.09375 7.625 -9.085938 7.09375 -8.984375 C 6.5625 -8.890625 6.070312 -8.703125 5.625 -8.421875 C 5.175781 -8.140625 4.789062 -7.753906 4.46875 -7.265625 C 4.144531 -6.785156 3.925781 -6.210938 3.8125 -5.546875 C 3.71875 -4.953125 3.738281 -4.367188 3.875 -3.796875 C 4.019531 -3.222656 4.25 -2.703125 4.5625 -2.234375 C 4.90625 -1.765625 5.320312 -1.363281 5.8125 -1.03125 C 6.300781 -0.695312 6.84375 -0.476562 7.4375 -0.375 Z M 8.5625 -8.3125 C 9 -8.238281 9.394531 -8.109375 9.75 -7.921875 C 10.113281 -7.734375 10.414062 -7.507812 10.65625 -7.25 C 10.914062 -6.976562 11.097656 -6.679688 11.203125 -6.359375 C 11.316406 -6.046875 11.367188 -5.726562 11.359375 -5.40625 L 4.765625 -6.484375 C 4.960938 -6.847656 5.203125 -7.160156 5.484375 -7.421875 C 5.765625 -7.691406 6.078125 -7.898438 6.421875 -8.046875 C 6.753906 -8.191406 7.101562 -8.285156 7.46875 -8.328125 C 7.84375 -8.378906 8.207031 -8.375 8.5625 -8.3125 Z M 8.5625 -8.3125 "/></g></g></g><g fill="#e2a9f1" fill-opacity="1"><g transform="translate(178.783493, 286.579454)"><g/></g></g><g fill="#e2a9f1" fill-opacity="1"><g transform="translate(186.857027, 287.246682)"><g><path d="M 7.953125 -0.625 L 4.203125 -0.328125 C 3.847656 -0.296875 3.515625 -0.332031 3.203125 -0.4375 C 2.898438 -0.550781 2.632812 -0.707031 2.40625 -0.90625 C 1.914062 -1.332031 1.644531 -1.894531 1.59375 -2.59375 L 0.703125 -13.859375 C 0.679688 -13.992188 0.65625 -14.125 0.625 -14.25 C 0.59375 -14.382812 0.554688 -14.523438 0.515625 -14.671875 C 0.460938 -14.804688 0.421875 -14.9375 0.390625 -15.0625 C 0.367188 -15.195312 0.351562 -15.328125 0.34375 -15.453125 C 0.332031 -15.597656 0.347656 -15.734375 0.390625 -15.859375 C 0.429688 -15.992188 0.503906 -16.109375 0.609375 -16.203125 C 0.710938 -16.304688 0.859375 -16.390625 1.046875 -16.453125 C 1.234375 -16.515625 1.484375 -16.554688 1.796875 -16.578125 L 6.671875 -16.96875 C 7.421875 -17.019531 8.148438 -16.972656 8.859375 -16.828125 C 9.578125 -16.691406 10.253906 -16.46875 10.890625 -16.15625 C 12.171875 -15.53125 13.21875 -14.632812 14.03125 -13.46875 C 14.445312 -12.882812 14.773438 -12.253906 15.015625 -11.578125 C 15.265625 -10.898438 15.421875 -10.1875 15.484375 -9.4375 C 15.578125 -8.3125 15.445312 -7.234375 15.09375 -6.203125 C 14.738281 -5.171875 14.222656 -4.265625 13.546875 -3.484375 C 12.867188 -2.671875 12.046875 -2.007812 11.078125 -1.5 C 10.117188 -1 9.078125 -0.707031 7.953125 -0.625 Z M 4.03125 -2.40625 L 7.96875 -2.75 C 8.8125 -2.820312 9.582031 -3.050781 10.28125 -3.4375 C 10.976562 -3.820312 11.570312 -4.316406 12.0625 -4.921875 C 12.539062 -5.515625 12.898438 -6.191406 13.140625 -6.953125 C 13.378906 -7.722656 13.46875 -8.507812 13.40625 -9.3125 C 13.34375 -10.125 13.128906 -10.890625 12.765625 -11.609375 C 12.398438 -12.328125 11.925781 -12.945312 11.34375 -13.46875 C 10.769531 -13.96875 10.109375 -14.351562 9.359375 -14.625 C 8.609375 -14.90625 7.828125 -15.015625 7.015625 -14.953125 L 3.03125 -14.609375 C 2.882812 -14.597656 2.785156 -14.570312 2.734375 -14.53125 C 2.679688 -14.507812 2.65625 -14.472656 2.65625 -14.421875 C 2.65625 -14.398438 2.671875 -14.363281 2.703125 -14.3125 C 2.710938 -14.289062 2.71875 -14.253906 2.71875 -14.203125 L 3.625 -2.75 C 3.632812 -2.632812 3.675781 -2.546875 3.75 -2.484375 C 3.832031 -2.421875 3.925781 -2.394531 4.03125 -2.40625 Z M 12.65625 -9.265625 C 12.707031 -8.554688 12.632812 -7.867188 12.4375 -7.203125 C 12.238281 -6.535156 11.925781 -5.9375 11.5 -5.40625 C 11.070312 -4.875 10.550781 -4.4375 9.9375 -4.09375 C 9.332031 -3.75 8.660156 -3.546875 7.921875 -3.484375 L 4.34375 -3.171875 L 3.5 -13.890625 L 7.078125 -14.203125 C 7.785156 -14.253906 8.460938 -14.160156 9.109375 -13.921875 C 9.765625 -13.691406 10.347656 -13.347656 10.859375 -12.890625 C 11.367188 -12.429688 11.78125 -11.890625 12.09375 -11.265625 C 12.414062 -10.640625 12.601562 -9.972656 12.65625 -9.265625 Z M 10.609375 -9.046875 C 10.566406 -9.597656 10.441406 -10.078125 10.234375 -10.484375 C 10.035156 -10.890625 9.773438 -11.210938 9.453125 -11.453125 C 9.128906 -11.703125 8.757812 -11.882812 8.34375 -12 C 7.925781 -12.113281 7.492188 -12.164062 7.046875 -12.15625 L 5.734375 -12.046875 L 6.265625 -5.3125 L 7.578125 -5.421875 C 8.515625 -5.546875 9.265625 -5.929688 9.828125 -6.578125 C 10.109375 -6.898438 10.316406 -7.269531 10.453125 -7.6875 C 10.597656 -8.101562 10.648438 -8.554688 10.609375 -9.046875 Z M 10.609375 -9.046875 "/></g></g></g><g fill="#e2a9f1" fill-opacity="1"><g transform="translate(204.503953, 285.6908)"><g><path d="M 6.9375 -1.4375 C 6.09375 -1.226562 5.257812 -1.191406 4.4375 -1.328125 C 3.625 -1.472656 2.875 -1.753906 2.1875 -2.171875 C 1.5 -2.585938 0.898438 -3.128906 0.390625 -3.796875 C -0.109375 -4.460938 -0.460938 -5.21875 -0.671875 -6.0625 C -0.878906 -6.894531 -0.910156 -7.722656 -0.765625 -8.546875 C -0.628906 -9.367188 -0.351562 -10.125 0.0625 -10.8125 C 0.476562 -11.5 1.015625 -12.09375 1.671875 -12.59375 C 2.335938 -13.101562 3.09375 -13.460938 3.9375 -13.671875 C 4.78125 -13.878906 5.601562 -13.929688 6.40625 -13.828125 C 7.207031 -13.722656 7.957031 -13.476562 8.65625 -13.09375 C 9.320312 -12.726562 9.90625 -12.226562 10.40625 -11.59375 C 10.90625 -10.96875 11.253906 -10.234375 11.453125 -9.390625 C 11.535156 -9.078125 11.550781 -8.796875 11.5 -8.546875 C 11.457031 -8.304688 11.359375 -8.109375 11.203125 -7.953125 C 11.066406 -7.773438 10.878906 -7.625 10.640625 -7.5 C 10.410156 -7.382812 10.144531 -7.289062 9.84375 -7.21875 L 4.578125 -5.921875 C 4.640625 -5.828125 4.722656 -5.734375 4.828125 -5.640625 C 4.929688 -5.546875 5.039062 -5.46875 5.15625 -5.40625 C 5.28125 -5.332031 5.410156 -5.28125 5.546875 -5.25 C 5.691406 -5.21875 5.847656 -5.222656 6.015625 -5.265625 C 6.171875 -5.304688 6.316406 -5.367188 6.453125 -5.453125 C 6.585938 -5.546875 6.722656 -5.640625 6.859375 -5.734375 C 7.003906 -5.828125 7.148438 -5.914062 7.296875 -6 C 7.453125 -6.082031 7.632812 -6.148438 7.84375 -6.203125 C 8.09375 -6.265625 8.363281 -6.296875 8.65625 -6.296875 C 8.945312 -6.296875 9.222656 -6.242188 9.484375 -6.140625 C 9.742188 -6.046875 9.972656 -5.894531 10.171875 -5.6875 C 10.367188 -5.488281 10.507812 -5.226562 10.59375 -4.90625 C 10.707031 -4.4375 10.664062 -4.015625 10.46875 -3.640625 C 10.269531 -3.265625 9.992188 -2.929688 9.640625 -2.640625 C 9.265625 -2.359375 8.835938 -2.113281 8.359375 -1.90625 C 7.878906 -1.707031 7.40625 -1.550781 6.9375 -1.4375 Z M 6.703125 -3.265625 C 7.171875 -3.378906 7.546875 -3.507812 7.828125 -3.65625 C 8.117188 -3.800781 8.335938 -3.941406 8.484375 -4.078125 C 8.640625 -4.203125 8.738281 -4.320312 8.78125 -4.4375 C 8.832031 -4.539062 8.859375 -4.609375 8.859375 -4.640625 C 8.835938 -4.703125 8.78125 -4.75 8.6875 -4.78125 C 8.601562 -4.8125 8.515625 -4.816406 8.421875 -4.796875 C 8.359375 -4.785156 8.320312 -4.78125 8.3125 -4.78125 C 8.207031 -4.707031 8.113281 -4.648438 8.03125 -4.609375 C 7.945312 -4.566406 7.875 -4.519531 7.8125 -4.46875 C 7.6875 -4.394531 7.5625 -4.320312 7.4375 -4.25 C 7.320312 -4.1875 7.203125 -4.132812 7.078125 -4.09375 C 6.929688 -4.019531 6.753906 -3.957031 6.546875 -3.90625 C 6.066406 -3.789062 5.582031 -3.773438 5.09375 -3.859375 C 4.601562 -3.941406 4.144531 -4.117188 3.71875 -4.390625 C 3.289062 -4.660156 2.910156 -5.023438 2.578125 -5.484375 C 2.253906 -5.941406 2.015625 -6.488281 1.859375 -7.125 L 8.546875 -8.78125 C 8.847656 -8.851562 9.035156 -8.929688 9.109375 -9.015625 C 9.160156 -9.078125 9.171875 -9.171875 9.140625 -9.296875 C 9.035156 -9.742188 8.84375 -10.148438 8.5625 -10.515625 C 8.28125 -10.890625 7.929688 -11.1875 7.515625 -11.40625 C 7.085938 -11.625 6.613281 -11.757812 6.09375 -11.8125 C 5.570312 -11.875 5.019531 -11.832031 4.4375 -11.6875 C 3.914062 -11.5625 3.429688 -11.347656 2.984375 -11.046875 C 2.535156 -10.753906 2.160156 -10.390625 1.859375 -9.953125 C 1.554688 -9.515625 1.351562 -9.007812 1.25 -8.4375 C 1.144531 -7.875 1.171875 -7.265625 1.328125 -6.609375 C 1.472656 -6.015625 1.722656 -5.476562 2.078125 -5 C 2.429688 -4.53125 2.847656 -4.144531 3.328125 -3.84375 C 3.816406 -3.550781 4.351562 -3.34375 4.9375 -3.21875 C 5.519531 -3.101562 6.109375 -3.117188 6.703125 -3.265625 Z M 4.609375 -11 C 5.046875 -11.101562 5.460938 -11.140625 5.859375 -11.109375 C 6.265625 -11.085938 6.628906 -11.007812 6.953125 -10.875 C 7.296875 -10.707031 7.582031 -10.5 7.8125 -10.25 C 8.039062 -10.007812 8.21875 -9.738281 8.34375 -9.4375 L 1.84375 -7.84375 C 1.875 -8.257812 1.96875 -8.640625 2.125 -8.984375 C 2.289062 -9.335938 2.5 -9.648438 2.75 -9.921875 C 3 -10.191406 3.285156 -10.414062 3.609375 -10.59375 C 3.929688 -10.78125 4.265625 -10.914062 4.609375 -11 Z M 4.609375 -11 "/></g></g></g><g fill="#e2a9f1" fill-opacity="1"><g transform="translate(218.884023, 282.091369)"><g><path d="M 8.734375 -13.125 L 8 -4.46875 C 7.945312 -3.945312 7.78125 -3.5 7.5 -3.125 C 7.21875 -2.757812 6.863281 -2.492188 6.4375 -2.328125 C 6.007812 -2.148438 5.570312 -2.09375 5.125 -2.15625 C 4.675781 -2.21875 4.25 -2.414062 3.84375 -2.75 L -2.703125 -8.421875 C -3.003906 -8.691406 -3.226562 -9.015625 -3.375 -9.390625 C -3.5 -9.679688 -3.554688 -9.988281 -3.546875 -10.3125 C -3.546875 -10.632812 -3.484375 -10.9375 -3.359375 -11.21875 C -3.242188 -11.507812 -3.066406 -11.773438 -2.828125 -12.015625 C -2.597656 -12.265625 -2.3125 -12.457031 -1.96875 -12.59375 C -1.550781 -12.769531 -1.113281 -12.820312 -0.65625 -12.75 C -0.207031 -12.6875 0.171875 -12.484375 0.484375 -12.140625 L 3.828125 -8.671875 L 3.828125 -13.4375 C 3.816406 -13.90625 3.953125 -14.320312 4.234375 -14.6875 C 4.515625 -15.0625 4.867188 -15.335938 5.296875 -15.515625 C 5.648438 -15.660156 5.992188 -15.726562 6.328125 -15.71875 C 6.660156 -15.707031 6.972656 -15.640625 7.265625 -15.515625 C 7.867188 -15.253906 8.300781 -14.816406 8.5625 -14.203125 C 8.625 -14.035156 8.671875 -13.859375 8.703125 -13.671875 C 8.734375 -13.492188 8.742188 -13.3125 8.734375 -13.125 Z M 5.890625 -4.65625 L 6.546875 -13.234375 C 6.554688 -13.296875 6.539062 -13.375 6.5 -13.46875 C 6.476562 -13.53125 6.429688 -13.570312 6.359375 -13.59375 C 6.285156 -13.625 6.1875 -13.617188 6.0625 -13.578125 C 5.90625 -13.503906 5.816406 -13.394531 5.796875 -13.25 L 5.25 -5.078125 L -0.734375 -10.5625 C -0.785156 -10.601562 -0.851562 -10.628906 -0.9375 -10.640625 C -1.03125 -10.660156 -1.117188 -10.65625 -1.203125 -10.625 C -1.335938 -10.5625 -1.414062 -10.492188 -1.4375 -10.421875 C -1.457031 -10.347656 -1.457031 -10.289062 -1.4375 -10.25 C -1.394531 -10.15625 -1.347656 -10.085938 -1.296875 -10.046875 L 5.109375 -4.328125 C 5.253906 -4.210938 5.414062 -4.1875 5.59375 -4.25 C 5.664062 -4.28125 5.734375 -4.332031 5.796875 -4.40625 C 5.859375 -4.476562 5.890625 -4.5625 5.890625 -4.65625 Z M 5.890625 -4.65625 "/></g></g></g><g fill="#e2a9f1" fill-opacity="1"><g transform="translate(232.144458, 276.669301)"><g><path d="M 6.234375 -3.375 C 5.484375 -2.925781 4.691406 -2.648438 3.859375 -2.546875 C 3.035156 -2.453125 2.238281 -2.507812 1.46875 -2.71875 C 0.675781 -2.914062 -0.0507812 -3.257812 -0.71875 -3.75 C -1.394531 -4.238281 -1.953125 -4.859375 -2.390625 -5.609375 C -2.828125 -6.347656 -3.097656 -7.132812 -3.203125 -7.96875 C -3.304688 -8.800781 -3.25 -9.601562 -3.03125 -10.375 C -2.84375 -11.15625 -2.5 -11.878906 -2 -12.546875 C -1.507812 -13.222656 -0.890625 -13.785156 -0.140625 -14.234375 C 0.597656 -14.671875 1.367188 -14.953125 2.171875 -15.078125 C 2.984375 -15.210938 3.769531 -15.195312 4.53125 -15.03125 C 5.289062 -14.863281 6 -14.550781 6.65625 -14.09375 C 7.3125 -13.632812 7.859375 -13.035156 8.296875 -12.296875 C 8.453125 -12.015625 8.539062 -11.75 8.5625 -11.5 C 8.59375 -11.257812 8.554688 -11.035156 8.453125 -10.828125 C 8.378906 -10.617188 8.242188 -10.425781 8.046875 -10.25 C 7.847656 -10.070312 7.613281 -9.90625 7.34375 -9.75 L 2.671875 -7 C 2.773438 -6.914062 2.882812 -6.84375 3 -6.78125 C 3.125 -6.71875 3.253906 -6.675781 3.390625 -6.65625 C 3.523438 -6.625 3.664062 -6.613281 3.8125 -6.625 C 3.957031 -6.632812 4.097656 -6.679688 4.234375 -6.765625 C 4.378906 -6.847656 4.503906 -6.953125 4.609375 -7.078125 C 4.710938 -7.203125 4.820312 -7.320312 4.9375 -7.4375 C 5.039062 -7.582031 5.148438 -7.710938 5.265625 -7.828125 C 5.390625 -7.953125 5.546875 -8.070312 5.734375 -8.1875 C 5.953125 -8.320312 6.203125 -8.425781 6.484375 -8.5 C 6.765625 -8.582031 7.046875 -8.613281 7.328125 -8.59375 C 7.609375 -8.570312 7.867188 -8.492188 8.109375 -8.359375 C 8.359375 -8.222656 8.570312 -8.007812 8.75 -7.71875 C 8.988281 -7.3125 9.066406 -6.898438 8.984375 -6.484375 C 8.910156 -6.078125 8.738281 -5.6875 8.46875 -5.3125 C 8.207031 -4.914062 7.867188 -4.550781 7.453125 -4.21875 C 7.046875 -3.894531 6.640625 -3.613281 6.234375 -3.375 Z M 5.484375 -5.046875 C 5.898438 -5.296875 6.222656 -5.523438 6.453125 -5.734375 C 6.691406 -5.953125 6.863281 -6.15625 6.96875 -6.34375 C 7.070312 -6.507812 7.128906 -6.648438 7.140625 -6.765625 C 7.160156 -6.878906 7.160156 -6.953125 7.140625 -6.984375 C 7.109375 -7.046875 7.046875 -7.078125 6.953125 -7.078125 C 6.859375 -7.085938 6.773438 -7.070312 6.703125 -7.03125 C 6.640625 -6.988281 6.609375 -6.96875 6.609375 -6.96875 C 6.523438 -6.863281 6.445312 -6.78125 6.375 -6.71875 C 6.3125 -6.65625 6.253906 -6.59375 6.203125 -6.53125 C 6.109375 -6.414062 6.015625 -6.304688 5.921875 -6.203125 C 5.828125 -6.109375 5.722656 -6.019531 5.609375 -5.9375 C 5.492188 -5.832031 5.34375 -5.722656 5.15625 -5.609375 C 4.726562 -5.359375 4.265625 -5.203125 3.765625 -5.140625 C 3.273438 -5.085938 2.789062 -5.128906 2.3125 -5.265625 C 1.820312 -5.398438 1.351562 -5.640625 0.90625 -5.984375 C 0.457031 -6.335938 0.0664062 -6.800781 -0.265625 -7.375 L 5.671875 -10.859375 C 5.941406 -11.015625 6.097656 -11.140625 6.140625 -11.234375 C 6.171875 -11.316406 6.15625 -11.414062 6.09375 -11.53125 C 5.851562 -11.925781 5.546875 -12.257812 5.171875 -12.53125 C 4.796875 -12.800781 4.382812 -12.984375 3.9375 -13.078125 C 3.46875 -13.171875 2.972656 -13.164062 2.453125 -13.0625 C 1.929688 -12.96875 1.410156 -12.769531 0.890625 -12.46875 C 0.429688 -12.195312 0.0351562 -11.851562 -0.296875 -11.4375 C -0.640625 -11.03125 -0.894531 -10.578125 -1.0625 -10.078125 C -1.226562 -9.566406 -1.28125 -9.019531 -1.21875 -8.4375 C -1.164062 -7.863281 -0.96875 -7.285156 -0.625 -6.703125 C -0.3125 -6.179688 0.078125 -5.75 0.546875 -5.40625 C 1.023438 -5.0625 1.539062 -4.804688 2.09375 -4.640625 C 2.644531 -4.492188 3.21875 -4.445312 3.8125 -4.5 C 4.40625 -4.5625 4.960938 -4.742188 5.484375 -5.046875 Z M 1.25 -11.859375 C 1.632812 -12.085938 2.023438 -12.242188 2.421875 -12.328125 C 2.816406 -12.421875 3.195312 -12.445312 3.5625 -12.40625 C 3.925781 -12.351562 4.253906 -12.238281 4.546875 -12.0625 C 4.835938 -11.882812 5.082031 -11.671875 5.28125 -11.421875 L -0.484375 -8.046875 C -0.578125 -8.441406 -0.59375 -8.828125 -0.53125 -9.203125 C -0.476562 -9.585938 -0.367188 -9.953125 -0.203125 -10.296875 C -0.046875 -10.617188 0.15625 -10.914062 0.40625 -11.1875 C 0.664062 -11.457031 0.945312 -11.679688 1.25 -11.859375 Z M 1.25 -11.859375 "/></g></g></g><g fill="#e2a9f1" fill-opacity="1"><g transform="translate(244.670052, 269.052328)"><g><path d="M -0.296875 -2.546875 L -7.3125 -11.875 C -7.507812 -12.132812 -7.644531 -12.421875 -7.71875 -12.734375 C -7.800781 -13.054688 -7.816406 -13.375 -7.765625 -13.6875 C -7.710938 -13.988281 -7.609375 -14.273438 -7.453125 -14.546875 C -7.296875 -14.828125 -7.078125 -15.070312 -6.796875 -15.28125 C -6.535156 -15.476562 -6.242188 -15.617188 -5.921875 -15.703125 C -5.597656 -15.785156 -5.285156 -15.804688 -4.984375 -15.765625 C -4.691406 -15.734375 -4.398438 -15.632812 -4.109375 -15.46875 C -3.828125 -15.300781 -3.585938 -15.085938 -3.390625 -14.828125 L 3.625 -5.5 C 3.832031 -5.21875 3.972656 -4.914062 4.046875 -4.59375 C 4.128906 -4.28125 4.148438 -3.972656 4.109375 -3.671875 C 4.066406 -3.347656 3.960938 -3.046875 3.796875 -2.765625 C 3.628906 -2.484375 3.414062 -2.242188 3.15625 -2.046875 C 2.875 -1.835938 2.578125 -1.691406 2.265625 -1.609375 C 1.953125 -1.535156 1.640625 -1.53125 1.328125 -1.59375 C 1.023438 -1.613281 0.726562 -1.707031 0.4375 -1.875 C 0.15625 -2.039062 -0.0859375 -2.265625 -0.296875 -2.546875 Z M -5.640625 -13.125 L 1.375 -3.8125 C 1.425781 -3.726562 1.5 -3.675781 1.59375 -3.65625 C 1.695312 -3.632812 1.796875 -3.65625 1.890625 -3.71875 C 1.972656 -3.78125 2.019531 -3.863281 2.03125 -3.96875 C 2.039062 -4.082031 2.019531 -4.179688 1.96875 -4.265625 L -5.046875 -13.578125 C -5.109375 -13.660156 -5.1875 -13.707031 -5.28125 -13.71875 C -5.382812 -13.726562 -5.476562 -13.703125 -5.5625 -13.640625 C -5.65625 -13.578125 -5.707031 -13.492188 -5.71875 -13.390625 C -5.726562 -13.296875 -5.703125 -13.207031 -5.640625 -13.125 Z M -5.640625 -13.125 "/></g></g></g><g fill="#e2a9f1" fill-opacity="1"><g transform="translate(251.184773, 264.356275)"><g><path d="M -3.59375 -4.921875 C -4.1875 -5.546875 -4.625 -6.25 -4.90625 -7.03125 C -5.1875 -7.820312 -5.3125 -8.617188 -5.28125 -9.421875 C -5.269531 -10.222656 -5.097656 -11.007812 -4.765625 -11.78125 C -4.441406 -12.550781 -3.96875 -13.234375 -3.34375 -13.828125 C -2.71875 -14.421875 -2.015625 -14.859375 -1.234375 -15.140625 C -0.453125 -15.421875 0.347656 -15.550781 1.171875 -15.53125 C 1.960938 -15.507812 2.742188 -15.332031 3.515625 -15 C 4.285156 -14.675781 4.96875 -14.203125 5.5625 -13.578125 C 6.15625 -12.953125 6.59375 -12.242188 6.875 -11.453125 C 7.15625 -10.671875 7.289062 -9.878906 7.28125 -9.078125 C 7.25 -8.265625 7.066406 -7.472656 6.734375 -6.703125 C 6.410156 -5.941406 5.9375 -5.265625 5.3125 -4.671875 C 4.6875 -4.078125 3.984375 -3.632812 3.203125 -3.34375 C 2.421875 -3.0625 1.628906 -2.9375 0.828125 -2.96875 C 0.015625 -2.988281 -0.773438 -3.160156 -1.546875 -3.484375 C -2.316406 -3.816406 -3 -4.296875 -3.59375 -4.921875 Z M -2.109375 -6.328125 C -1.710938 -5.898438 -1.25 -5.578125 -0.71875 -5.359375 C -0.195312 -5.148438 0.332031 -5.035156 0.875 -5.015625 C 1.40625 -5.003906 1.9375 -5.09375 2.46875 -5.28125 C 3 -5.476562 3.476562 -5.773438 3.90625 -6.171875 C 4.332031 -6.578125 4.65625 -7.035156 4.875 -7.546875 C 5.09375 -8.066406 5.207031 -8.597656 5.21875 -9.140625 C 5.238281 -9.691406 5.148438 -10.226562 4.953125 -10.75 C 4.765625 -11.269531 4.472656 -11.742188 4.078125 -12.171875 C 3.679688 -12.597656 3.21875 -12.921875 2.6875 -13.140625 C 2.164062 -13.367188 1.632812 -13.488281 1.09375 -13.5 C 0.550781 -13.519531 0.0195312 -13.429688 -0.5 -13.234375 C -1.03125 -13.046875 -1.507812 -12.75 -1.9375 -12.34375 C -2.363281 -11.945312 -2.6875 -11.488281 -2.90625 -10.96875 C -3.132812 -10.457031 -3.25 -9.925781 -3.25 -9.375 C -3.269531 -8.832031 -3.179688 -8.296875 -2.984375 -7.765625 C -2.796875 -7.234375 -2.503906 -6.753906 -2.109375 -6.328125 Z M -1.546875 -6.859375 C -1.878906 -7.210938 -2.125 -7.613281 -2.28125 -8.0625 C -2.445312 -8.507812 -2.535156 -8.953125 -2.546875 -9.390625 C -2.515625 -9.835938 -2.410156 -10.269531 -2.234375 -10.6875 C -2.066406 -11.113281 -1.804688 -11.492188 -1.453125 -11.828125 C -1.109375 -12.160156 -0.710938 -12.40625 -0.265625 -12.5625 C 0.179688 -12.726562 0.617188 -12.800781 1.046875 -12.78125 C 1.503906 -12.769531 1.941406 -12.664062 2.359375 -12.46875 C 2.785156 -12.269531 3.164062 -11.992188 3.5 -11.640625 C 3.832031 -11.285156 4.082031 -10.890625 4.25 -10.453125 C 4.425781 -10.023438 4.515625 -9.582031 4.515625 -9.125 C 4.515625 -8.6875 4.421875 -8.25 4.234375 -7.8125 C 4.046875 -7.375 3.78125 -6.988281 3.4375 -6.65625 C 3.082031 -6.320312 2.6875 -6.082031 2.25 -5.9375 C 1.820312 -5.789062 1.378906 -5.722656 0.921875 -5.734375 C 0.472656 -5.765625 0.0351562 -5.867188 -0.390625 -6.046875 C -0.828125 -6.234375 -1.210938 -6.503906 -1.546875 -6.859375 Z M -0.03125 -8.296875 C 0.25 -7.992188 0.59375 -7.828125 1 -7.796875 C 1.175781 -7.785156 1.351562 -7.804688 1.53125 -7.859375 C 1.71875 -7.921875 1.882812 -8.019531 2.03125 -8.15625 C 2.175781 -8.289062 2.28125 -8.445312 2.34375 -8.625 C 2.414062 -8.800781 2.453125 -8.984375 2.453125 -9.171875 C 2.429688 -9.566406 2.28125 -9.914062 2 -10.21875 C 1.71875 -10.507812 1.382812 -10.671875 1 -10.703125 C 0.800781 -10.722656 0.613281 -10.703125 0.4375 -10.640625 C 0.257812 -10.578125 0.0976562 -10.476562 -0.046875 -10.34375 C -0.191406 -10.207031 -0.300781 -10.050781 -0.375 -9.875 C -0.445312 -9.707031 -0.472656 -9.523438 -0.453125 -9.328125 C -0.453125 -8.929688 -0.3125 -8.585938 -0.03125 -8.296875 Z M -0.03125 -8.296875 "/></g></g></g><g fill="#e2a9f1" fill-opacity="1"><g transform="translate(261.950996, 254.124376)"><g><path d="M 2.21875 0.09375 L -7.859375 -7.765625 C -8.578125 -8.328125 -8.65625 -8.96875 -8.09375 -9.6875 C -7.8125 -10.050781 -7.484375 -10.265625 -7.109375 -10.328125 C -6.734375 -10.390625 -6.328125 -10.367188 -5.890625 -10.265625 C -5.929688 -10.898438 -5.863281 -11.53125 -5.6875 -12.15625 C -5.519531 -12.789062 -5.203125 -13.40625 -4.734375 -14 C -4.203125 -14.6875 -3.585938 -15.203125 -2.890625 -15.546875 C -2.203125 -15.898438 -1.472656 -16.101562 -0.703125 -16.15625 C 0.0546875 -16.207031 0.820312 -16.109375 1.59375 -15.859375 C 2.363281 -15.609375 3.097656 -15.210938 3.796875 -14.671875 C 4.472656 -14.140625 5.023438 -13.53125 5.453125 -12.84375 C 5.890625 -12.164062 6.179688 -11.445312 6.328125 -10.6875 C 6.441406 -9.945312 6.414062 -9.191406 6.25 -8.421875 C 6.082031 -7.660156 5.734375 -6.9375 5.203125 -6.25 C 4.796875 -5.726562 4.285156 -5.3125 3.671875 -5 L 5.234375 -3.78125 C 5.503906 -3.5625 5.71875 -3.304688 5.875 -3.015625 C 6.03125 -2.734375 6.128906 -2.441406 6.171875 -2.140625 C 6.210938 -1.828125 6.1875 -1.507812 6.09375 -1.1875 C 6.007812 -0.875 5.867188 -0.585938 5.671875 -0.328125 C 5.453125 -0.0546875 5.203125 0.15625 4.921875 0.3125 C 4.640625 0.46875 4.34375 0.5625 4.03125 0.59375 C 3.71875 0.644531 3.40625 0.628906 3.09375 0.546875 C 2.78125 0.460938 2.488281 0.3125 2.21875 0.09375 Z M -5.65625 -8.6875 L 3.53125 -1.515625 C 3.582031 -1.484375 3.660156 -1.457031 3.765625 -1.4375 C 3.867188 -1.425781 3.96875 -1.476562 4.0625 -1.59375 C 4.125 -1.675781 4.148438 -1.765625 4.140625 -1.859375 C 4.140625 -1.953125 4.085938 -2.035156 3.984375 -2.109375 L -0.546875 -5.65625 C 0.179688 -5.488281 0.890625 -5.546875 1.578125 -5.828125 C 2.273438 -6.109375 2.863281 -6.5625 3.34375 -7.1875 C 3.695312 -7.644531 3.9375 -8.140625 4.0625 -8.671875 C 4.195312 -9.203125 4.226562 -9.734375 4.15625 -10.265625 C 4.09375 -10.773438 3.921875 -11.269531 3.640625 -11.75 C 3.359375 -12.238281 2.988281 -12.660156 2.53125 -13.015625 C 2.082031 -13.367188 1.59375 -13.617188 1.0625 -13.765625 C 0.53125 -13.921875 0 -13.972656 -0.53125 -13.921875 C -1.0625 -13.859375 -1.566406 -13.695312 -2.046875 -13.4375 C -2.535156 -13.1875 -2.957031 -12.832031 -3.3125 -12.375 C -3.789062 -11.75 -4.078125 -11.066406 -4.171875 -10.328125 C -4.203125 -9.972656 -4.1875 -9.609375 -4.125 -9.234375 C -4.070312 -8.867188 -3.957031 -8.515625 -3.78125 -8.171875 L -4.90625 -9.046875 C -5.019531 -9.140625 -5.128906 -9.203125 -5.234375 -9.234375 C -5.347656 -9.265625 -5.441406 -9.269531 -5.515625 -9.25 C -5.609375 -9.257812 -5.679688 -9.242188 -5.734375 -9.203125 C -5.796875 -9.160156 -5.847656 -9.113281 -5.890625 -9.0625 C -5.941406 -9 -5.941406 -8.941406 -5.890625 -8.890625 C -5.835938 -8.835938 -5.757812 -8.769531 -5.65625 -8.6875 Z M -2.109375 -7.0625 C -2.484375 -7.351562 -2.785156 -7.707031 -3.015625 -8.125 C -3.242188 -8.539062 -3.390625 -8.96875 -3.453125 -9.40625 C -3.503906 -9.84375 -3.472656 -10.28125 -3.359375 -10.71875 C -3.253906 -11.164062 -3.054688 -11.578125 -2.765625 -11.953125 C -2.460938 -12.335938 -2.113281 -12.632812 -1.71875 -12.84375 C -1.320312 -13.050781 -0.90625 -13.179688 -0.46875 -13.234375 C -0.0390625 -13.265625 0.394531 -13.207031 0.84375 -13.0625 C 1.289062 -12.925781 1.703125 -12.710938 2.078125 -12.421875 C 2.460938 -12.117188 2.773438 -11.769531 3.015625 -11.375 C 3.253906 -10.976562 3.40625 -10.570312 3.46875 -10.15625 C 3.539062 -9.71875 3.523438 -9.28125 3.421875 -8.84375 C 3.316406 -8.40625 3.113281 -7.992188 2.8125 -7.609375 C 2.519531 -7.234375 2.171875 -6.9375 1.765625 -6.71875 C 1.367188 -6.507812 0.941406 -6.378906 0.484375 -6.328125 C 0.0546875 -6.273438 -0.382812 -6.304688 -0.84375 -6.421875 C -1.300781 -6.546875 -1.722656 -6.757812 -2.109375 -7.0625 Z M -0.9375 -8.59375 C -0.625 -8.34375 -0.273438 -8.234375 0.109375 -8.265625 C 0.304688 -8.273438 0.488281 -8.320312 0.65625 -8.40625 C 0.820312 -8.488281 0.96875 -8.609375 1.09375 -8.765625 C 1.21875 -8.929688 1.300781 -9.109375 1.34375 -9.296875 C 1.382812 -9.484375 1.390625 -9.671875 1.359375 -9.859375 C 1.296875 -10.242188 1.109375 -10.5625 0.796875 -10.8125 C 0.453125 -11.082031 0.0820312 -11.203125 -0.3125 -11.171875 C -0.507812 -11.148438 -0.691406 -11.097656 -0.859375 -11.015625 C -1.023438 -10.929688 -1.171875 -10.804688 -1.296875 -10.640625 C -1.421875 -10.484375 -1.503906 -10.3125 -1.546875 -10.125 C -1.585938 -9.9375 -1.59375 -9.753906 -1.5625 -9.578125 C -1.488281 -9.191406 -1.28125 -8.863281 -0.9375 -8.59375 Z M -0.9375 -8.59375 "/></g></g></g><g fill="#e2a9f1" fill-opacity="1"><g transform="translate(271.34773, 241.954319)"><g><path d="M 3.6875 -6.046875 C 3.257812 -5.296875 2.710938 -4.664062 2.046875 -4.15625 C 1.390625 -3.644531 0.675781 -3.285156 -0.09375 -3.078125 C -0.875 -2.859375 -1.679688 -2.789062 -2.515625 -2.875 C -3.347656 -2.96875 -4.140625 -3.222656 -4.890625 -3.640625 C -5.648438 -4.066406 -6.28125 -4.609375 -6.78125 -5.265625 C -7.28125 -5.929688 -7.632812 -6.648438 -7.84375 -7.421875 C -8.070312 -8.191406 -8.144531 -8.992188 -8.0625 -9.828125 C -7.976562 -10.671875 -7.722656 -11.46875 -7.296875 -12.21875 C -6.878906 -12.96875 -6.351562 -13.601562 -5.71875 -14.125 C -5.082031 -14.644531 -4.394531 -15.03125 -3.65625 -15.28125 C -2.914062 -15.507812 -2.144531 -15.585938 -1.34375 -15.515625 C -0.550781 -15.453125 0.21875 -15.207031 0.96875 -14.78125 C 1.25 -14.625 1.460938 -14.445312 1.609375 -14.25 C 1.753906 -14.050781 1.832031 -13.835938 1.84375 -13.609375 C 1.882812 -13.390625 1.863281 -13.15625 1.78125 -12.90625 C 1.707031 -12.65625 1.59375 -12.394531 1.4375 -12.125 L -1.203125 -7.390625 C -1.078125 -7.367188 -0.945312 -7.363281 -0.8125 -7.375 C -0.6875 -7.382812 -0.554688 -7.410156 -0.421875 -7.453125 C -0.285156 -7.492188 -0.160156 -7.554688 -0.046875 -7.640625 C 0.0664062 -7.734375 0.164062 -7.851562 0.25 -8 C 0.332031 -8.144531 0.382812 -8.289062 0.40625 -8.4375 C 0.4375 -8.59375 0.472656 -8.753906 0.515625 -8.921875 C 0.535156 -9.085938 0.566406 -9.253906 0.609375 -9.421875 C 0.648438 -9.585938 0.722656 -9.765625 0.828125 -9.953125 C 0.953125 -10.179688 1.113281 -10.398438 1.3125 -10.609375 C 1.519531 -10.816406 1.742188 -10.988281 1.984375 -11.125 C 2.234375 -11.25 2.5 -11.3125 2.78125 -11.3125 C 3.070312 -11.320312 3.363281 -11.242188 3.65625 -11.078125 C 4.070312 -10.835938 4.351562 -10.519531 4.5 -10.125 C 4.644531 -9.738281 4.691406 -9.3125 4.640625 -8.84375 C 4.609375 -8.375 4.5 -7.894531 4.3125 -7.40625 C 4.125 -6.914062 3.914062 -6.460938 3.6875 -6.046875 Z M 2.1875 -7.109375 C 2.425781 -7.535156 2.59375 -7.90625 2.6875 -8.21875 C 2.78125 -8.53125 2.828125 -8.785156 2.828125 -8.984375 C 2.835938 -9.179688 2.816406 -9.335938 2.765625 -9.453125 C 2.722656 -9.546875 2.691406 -9.601562 2.671875 -9.625 C 2.597656 -9.65625 2.519531 -9.648438 2.4375 -9.609375 C 2.363281 -9.566406 2.300781 -9.507812 2.25 -9.4375 C 2.21875 -9.375 2.203125 -9.335938 2.203125 -9.328125 C 2.171875 -9.210938 2.144531 -9.109375 2.125 -9.015625 C 2.101562 -8.921875 2.082031 -8.835938 2.0625 -8.765625 C 2.050781 -8.617188 2.023438 -8.476562 1.984375 -8.34375 C 1.953125 -8.207031 1.910156 -8.078125 1.859375 -7.953125 C 1.796875 -7.804688 1.710938 -7.632812 1.609375 -7.4375 C 1.367188 -7.007812 1.050781 -6.644531 0.65625 -6.34375 C 0.269531 -6.050781 -0.164062 -5.84375 -0.65625 -5.71875 C -1.144531 -5.59375 -1.671875 -5.5625 -2.234375 -5.625 C -2.796875 -5.695312 -3.363281 -5.894531 -3.9375 -6.21875 L -0.5625 -12.234375 C -0.414062 -12.503906 -0.347656 -12.691406 -0.359375 -12.796875 C -0.359375 -12.890625 -0.421875 -12.96875 -0.546875 -13.03125 C -0.941406 -13.25 -1.367188 -13.378906 -1.828125 -13.421875 C -2.296875 -13.472656 -2.75 -13.425781 -3.1875 -13.28125 C -3.632812 -13.113281 -4.054688 -12.859375 -4.453125 -12.515625 C -4.859375 -12.179688 -5.210938 -11.753906 -5.515625 -11.234375 C -5.773438 -10.765625 -5.945312 -10.265625 -6.03125 -9.734375 C -6.113281 -9.203125 -6.097656 -8.679688 -5.984375 -8.171875 C -5.867188 -7.648438 -5.640625 -7.15625 -5.296875 -6.6875 C -4.960938 -6.21875 -4.5 -5.816406 -3.90625 -5.484375 C -3.375 -5.191406 -2.816406 -5.015625 -2.234375 -4.953125 C -1.648438 -4.890625 -1.082031 -4.925781 -0.53125 -5.0625 C 0.0195312 -5.21875 0.535156 -5.46875 1.015625 -5.8125 C 1.503906 -6.15625 1.894531 -6.585938 2.1875 -7.109375 Z M -4.890625 -10.890625 C -4.671875 -11.273438 -4.410156 -11.601562 -4.109375 -11.875 C -3.804688 -12.15625 -3.492188 -12.363281 -3.171875 -12.5 C -2.835938 -12.644531 -2.5 -12.71875 -2.15625 -12.71875 C -1.8125 -12.71875 -1.488281 -12.65625 -1.1875 -12.53125 L -4.453125 -6.703125 C -4.742188 -7.003906 -4.960938 -7.332031 -5.109375 -7.6875 C -5.253906 -8.050781 -5.335938 -8.414062 -5.359375 -8.78125 C -5.390625 -9.15625 -5.359375 -9.519531 -5.265625 -9.875 C -5.179688 -10.238281 -5.054688 -10.578125 -4.890625 -10.890625 Z M -4.890625 -10.890625 "/></g></g></g><g fill="#e2a9f1" fill-opacity="1"><g transform="translate(278.464493, 229.012308)"><g><path d="M -1.5625 -2.015625 L -9.734375 -5.25 C -10.578125 -5.582031 -10.832031 -6.171875 -10.5 -7.015625 C -10.351562 -7.398438 -10.132812 -7.679688 -9.84375 -7.859375 C -9.5625 -8.046875 -9.203125 -8.15625 -8.765625 -8.1875 C -8.929688 -8.757812 -9.015625 -9.335938 -9.015625 -9.921875 C -9.015625 -10.503906 -8.90625 -11.066406 -8.6875 -11.609375 C -8.539062 -11.972656 -8.347656 -12.332031 -8.109375 -12.6875 C -7.867188 -13.039062 -7.59375 -13.332031 -7.28125 -13.5625 C -6.96875 -13.8125 -6.613281 -13.972656 -6.21875 -14.046875 C -5.832031 -14.117188 -5.414062 -14.066406 -4.96875 -13.890625 C -4.675781 -13.773438 -4.425781 -13.609375 -4.21875 -13.390625 C -4.007812 -13.179688 -3.84375 -12.9375 -3.71875 -12.65625 C -3.59375 -12.394531 -3.523438 -12.109375 -3.515625 -11.796875 C -3.515625 -11.484375 -3.566406 -11.1875 -3.671875 -10.90625 C -3.765625 -10.664062 -3.878906 -10.441406 -4.015625 -10.234375 C -4.160156 -10.015625 -4.273438 -9.789062 -4.359375 -9.5625 C -4.453125 -9.332031 -4.488281 -9.132812 -4.46875 -8.96875 C -4.457031 -8.8125 -4.40625 -8.671875 -4.3125 -8.546875 C -4.21875 -8.441406 -4.085938 -8.34375 -3.921875 -8.25 C -3.753906 -8.164062 -3.5625 -8.078125 -3.34375 -7.984375 L 0.234375 -6.578125 C 0.554688 -6.453125 0.832031 -6.269531 1.0625 -6.03125 C 1.300781 -5.800781 1.472656 -5.546875 1.578125 -5.265625 C 1.710938 -4.984375 1.78125 -4.675781 1.78125 -4.34375 C 1.789062 -4.019531 1.734375 -3.703125 1.609375 -3.390625 C 1.484375 -3.066406 1.304688 -2.789062 1.078125 -2.5625 C 0.859375 -2.332031 0.597656 -2.160156 0.296875 -2.046875 C 0.0234375 -1.898438 -0.269531 -1.828125 -0.59375 -1.828125 C -0.914062 -1.828125 -1.238281 -1.890625 -1.5625 -2.015625 Z M -8.171875 -6.859375 L -0.828125 -3.953125 C -0.734375 -3.921875 -0.640625 -3.921875 -0.546875 -3.953125 C -0.453125 -3.984375 -0.382812 -4.050781 -0.34375 -4.15625 C -0.300781 -4.25 -0.300781 -4.34375 -0.34375 -4.4375 C -0.382812 -4.539062 -0.453125 -4.609375 -0.546875 -4.640625 L -4.546875 -6.21875 C -5.128906 -6.445312 -5.5625 -6.75 -5.84375 -7.125 C -6.125 -7.5 -6.3125 -7.898438 -6.40625 -8.328125 C -6.476562 -8.722656 -6.476562 -9.128906 -6.40625 -9.546875 C -6.34375 -9.972656 -6.25 -10.34375 -6.125 -10.65625 C -6.0625 -10.8125 -6.003906 -10.929688 -5.953125 -11.015625 C -5.910156 -11.097656 -5.863281 -11.175781 -5.8125 -11.25 C -5.769531 -11.289062 -5.734375 -11.332031 -5.703125 -11.375 C -5.671875 -11.425781 -5.644531 -11.476562 -5.625 -11.53125 C -5.59375 -11.625 -5.578125 -11.710938 -5.578125 -11.796875 C -5.585938 -11.878906 -5.648438 -11.941406 -5.765625 -11.984375 C -5.859375 -12.023438 -5.953125 -12.019531 -6.046875 -11.96875 C -6.148438 -11.925781 -6.25 -11.851562 -6.34375 -11.75 C -6.425781 -11.632812 -6.5 -11.503906 -6.5625 -11.359375 C -6.632812 -11.210938 -6.703125 -11.0625 -6.765625 -10.90625 C -6.953125 -10.414062 -7.0625 -9.945312 -7.09375 -9.5 C -7.125 -9.0625 -7.101562 -8.660156 -7.03125 -8.296875 C -6.945312 -7.929688 -6.832031 -7.628906 -6.6875 -7.390625 C -6.550781 -7.148438 -6.410156 -6.988281 -6.265625 -6.90625 L -6.9375 -7.171875 C -7.363281 -7.335938 -7.675781 -7.394531 -7.875 -7.34375 C -8.09375 -7.289062 -8.222656 -7.207031 -8.265625 -7.09375 C -8.316406 -6.976562 -8.285156 -6.898438 -8.171875 -6.859375 Z M -8.171875 -6.859375 "/></g></g></g><g clip-path="url(#7ce4ed9764)"><g clip-path="url(#e53a953ca7)"><g transform="matrix(1, 0, 0, 1, 271, 213)"><g clip-path="url(#a4b76b8a99)"><g clip-path="url(#990b9b4871)"><g clip-path="url(#194b6aa303)"><path fill="#145da0" d="M 0.6875 0.285156 L 11.078125 0.285156 L 11.078125 10.675781 L 0.6875 10.675781 Z M 0.6875 0.285156 " fill-opacity="1" fill-rule="nonzero"/></g></g></g></g></g></g></svg>